<?xml version="1.0" encoding="utf-8"?>
<svg xmlns="http://www.w3.org/2000/svg" height="32px" version="1.1" viewBox="0 0 32 32" width="32px">
    <title>stSUI-logo</title>
    <g fill="none" fill-rule="evenodd" id="-1" stroke="none" stroke-width="1">
        <g id="Withdraw-By-Unstake" transform="translate(-758.000000, -287.000000)">
            <g id="-15" transform="translate(746.000000, 255.000000)">
                <g id="stSUI-logo" transform="translate(12.000000, 32.000000)">
                    <circle cx="16" cy="16" fill="#F9E0BC" id="" r="16"/>
                    <path d="M21.439829,13.5452707 L21.4399439,13.5449239 L16.1939082,7.09240109 C16.0937654,6.96919967 15.9062346,6.96919961 15.8060918,7.09240109 L10.5600102,13.5449817 L10.5601538,13.5453285 L10.5430841,13.5666546 C9.57770856,14.7716673 9,16.3030448 9,17.9700657 C9,21.8525184 12.1339415,25 16,25 C19.8660987,25 23,21.8525184 23,17.9700657 C23,16.3030448 22.4222972,14.7716673 21.4569503,13.5666546 L21.439829,13.5452707 Z" fill="#4B433C" id=""/>
                    <path d="M10.6139553,18.603203 C11.3142208,19.4361665 12.2118573,20.1163233 13.2632283,20.5658618 L13.5107951,20.6717149 C14.6835706,21.1731627 15.5293134,22.1386989 15.9099811,23.2720038 L16,23.2737651 C13.2864251,23.2737651 11.0365871,21.2800896 10.6234226,18.6717834 Z M11.913233,14.1867705 C12.3897248,15.987359 13.7492985,17.5022947 15.6350271,18.1063495 L15.8577569,18.1831967 C17.6300009,18.8391783 18.8981679,20.3898366 19.2135192,22.2202281 C18.7066705,22.5928785 18.1341091,22.879363 17.5163241,23.0589076 C17.0488332,21.3787072 15.8473103,19.9306272 14.1398256,19.2005518 L13.8922588,19.0946988 C12.4610863,18.4827672 11.397352,17.3196392 10.8841763,15.9318526 C11.063774,15.4367192 11.3124874,14.9757215 11.6185177,14.5598326 L11.7690085,14.3645761 Z M16.1508175,9.34563258 L20.2442947,14.3811631 C20.99512,15.3183952 21.4444444,16.5094666 21.4444444,17.8060384 C21.4444444,18.940436 21.1004527,19.9941598 20.5115035,20.8677297 C19.818042,18.8684848 18.2193367,17.2540959 16.1231239,16.5826168 L15.9271672,16.5143048 C14.2405593,15.8776503 13.1972118,14.199595 13.3402058,12.4314524 L15.8491825,9.34563258 C15.9270714,9.2498092 16.0729286,9.24980925 16.1508175,9.34563258 Z" fill="#F9E0BC" id=""/>
                </g>
            </g>
        </g>
    </g>
</svg>