<?xml version="1.0" encoding="utf-8"?>
<svg xmlns="http://www.w3.org/2000/svg" fill="none" height="16" viewBox="0 0 16 16" width="16">
<rect fill="#EAF7FF" height="16" rx="8" width="16"/>
<path clip-rule="evenodd" d="M10.5449 7.11565L10.5447 7.11612C10.9838 7.66177 11.2462 8.35287 11.2462 9.10455C11.2462 9.86741 10.9759 10.5679 10.525 11.1172L10.4861 11.1645L10.4759 11.1044C10.4671 11.0533 10.4568 11.0017 10.4449 10.9497C10.2192 9.96696 9.48387 9.1243 8.27366 8.44201C7.45642 7.98253 6.98863 7.42926 6.86581 6.80065C6.7865 6.39416 6.84547 5.98587 6.95943 5.63615C7.07336 5.28655 7.24284 4.99365 7.38682 4.81731L7.38691 4.81719L7.85768 4.24669C7.94025 4.14665 8.09475 4.14665 8.17732 4.24669L10.5449 7.11565ZM11.2895 6.54568L11.2896 6.54547L8.13413 2.72175C8.07388 2.64874 7.96109 2.64874 7.90083 2.72175L4.74535 6.54551L4.74543 6.54572L4.73517 6.55834C4.1545 7.27243 3.80701 8.17992 3.80701 9.16778C3.80701 11.4685 5.69206 13.3337 8.01748 13.3337C10.3429 13.3337 12.228 11.4685 12.228 9.16778C12.228 8.17993 11.8805 7.27244 11.2998 6.55834L11.2895 6.54568ZM5.50036 7.10333L5.50049 7.10318L5.78272 6.76116L5.79126 6.8243C5.79802 6.87432 5.80621 6.92459 5.81593 6.97509C5.99855 7.92466 6.65091 8.71643 7.7416 9.32965C8.68968 9.8644 9.24167 10.4793 9.40073 11.1537C9.46708 11.4352 9.47891 11.7121 9.45017 11.9542L9.44839 11.9692L9.43472 11.9758C9.00682 12.183 8.52579 12.2992 8.01739 12.2992C6.23421 12.2992 4.78858 10.869 4.78858 9.10455C4.78858 8.34701 5.05506 7.65094 5.50036 7.10333Z" fill="#4CA3FF" fill-rule="evenodd"/>
</svg>