<svg width="100" height="100" viewBox="0 0 100 100" fill="none" xmlns="http://www.w3.org/2000/svg">
<g clip-path="url(#clip0_19569_75822)">
<path d="M100 50C100 22.3858 77.6142 0 50 0C22.3858 0 0 22.3858 0 50C0 77.6142 22.3858 100 50 100C77.6142 100 100 77.6142 100 50Z" fill="#FF4D14"/>
<path d="M68.4746 40.3041C67.5812 31.7065 60.1437 25 51.1041 25C46.2972 25 42.1842 26.662 38.785 29.9665C35.3857 33.271 27.0947 42.049 24 70.9805L62.0704 71C62.7543 64.62 63.9174 59.0833 65.315 54.3312L83 50.1543L68.4746 40.3041ZM52.0026 48.2778C48.4985 48.2778 45.6583 45.5046 45.6583 42.0831C45.6583 38.6616 48.4985 35.8883 52.0026 35.8883C55.5066 35.8883 58.3468 38.6616 58.3468 42.0831C58.3418 45.5046 55.5016 48.2778 52.0026 48.2778Z" fill="white"/>
</g>
<defs>
<clipPath id="clip0_19569_75822">
<rect width="100" height="100" fill="white"/>
</clipPath>
</defs>
</svg>
