<?xml version="1.0" encoding="utf-8"?>
<svg xmlns="http://www.w3.org/2000/svg" height="42.5px" version="1.1" viewBox="0 0 100 95" width="50px">
    <title>编组 37</title>
    <defs>
        <linearGradient id="linearGradient-1" x1="95.6042225%" x2="0%" y1="132.339434%" y2="4.875%">
            <stop offset="0%" stop-color="#FFD06A"/>
            <stop offset="100%" stop-color="#FFE174"/>
        </linearGradient>
        <linearGradient id="linearGradient-2" x1="95.6042225%" x2="0%" y1="131.886206%" y2="5.12338526%">
            <stop offset="0%" stop-color="#FFD06A"/>
            <stop offset="100%" stop-color="#FFE174"/>
        </linearGradient>
        <linearGradient id="linearGradient-3" x1="95.6042225%" x2="0%" y1="132.256409%" y2="4.9205003%">
            <stop offset="0%" stop-color="#FFD06A"/>
            <stop offset="100%" stop-color="#FFFF74"/>
        </linearGradient>
    </defs>
    <g fill="none" fill-rule="evenodd" id="1" stroke="none" stroke-width="1">
        <g id="" transform="translate(-50.000000, -273.000000)">
            <g id="logo1-5" transform="translate(50.000000, 273.000000)">
                <path d="M19.623651,84.0672373 L20.6962676,64.4279532 C20.7608153,63.2461046 20.3900189,62.0815755 19.6540125,61.1546304 L6.69385833,44.8322839 C4.23154259,41.7311811 4.74938184,37.2211393 7.85048465,34.7588235 C8.59344144,34.1689062 9.4460833,33.7322968 10.359003,33.4742952 L29.7120445,28.004902 C30.8123045,27.6939558 31.7669434,27.0035057 32.4067564,26.0559304 L43.9118658,9.01664319 C46.1277289,5.73490761 50.5844131,4.8708472 53.8661487,7.08671025 C54.6719312,7.6307832 55.3586379,8.33305757 55.8845141,9.15083195 L66.6972585,25.9654073 C67.3423456,26.968563 68.3351386,27.6981875 69.4851549,28.0142911 L89.4212014,33.4940877 C93.2393682,34.5435826 95.4838203,38.489602 94.4343255,42.3077689 C94.1717152,43.2631713 93.7139291,44.153772 93.0898534,44.9233742 L79.93619,61.144305 C79.1798989,62.0769536 78.7973265,63.2574504 78.8628091,64.4564174 L79.9307763,84.0105718 C80.1467211,87.9644566 77.1165221,91.3447715 73.1626372,91.5607163 C72.1663118,91.6151315 71.1695972,91.4609864 70.2362558,91.1081422 L51.6991271,84.100289 C50.6036866,83.6861641 49.3952398,83.6833039 48.2978512,84.0922386 L29.2863962,91.1767343 C25.5758743,92.5594362 21.4470006,90.6723653 20.0642986,86.9618434 C19.7198694,86.0375575 19.5698595,85.0521446 19.623651,84.0672373 Z" id="-16" stroke="url(#linearGradient-1)" stroke-width="1.79245283"/>
                <path d="M26.069714,81.7264152 L27.1600277,61.8181212 C27.2115697,60.8770034 26.9157068,59.9497268 26.328621,59.2123739 L13.3665914,42.9326561 C12.3931314,41.7100348 12.5951166,39.9297592 13.8177379,38.9562993 C14.1121908,38.7218537 14.4504563,38.5485062 14.8127307,38.4464055 L34.3256473,32.9470279 C35.1994274,32.700768 35.9579202,32.1533377 36.4668924,31.4016177 L48.0456699,14.3004874 C48.9218744,13.0063882 50.6812532,12.6676175 51.9753524,13.543822 C52.2910978,13.7576059 52.5603794,14.0329988 52.767025,14.3534615 L63.7138903,31.3296888 C64.2271088,32.12558 65.0159457,32.7041227 65.9292692,32.9544749 L85.9931882,38.4542206 C87.500416,38.8673687 88.3873429,40.424141 87.9741948,41.9313688 C87.8702967,42.3104051 87.6885815,42.6636426 87.4406281,42.9685728 L74.2386546,59.2042101 C73.6354168,59.946065 73.3301702,60.8860357 73.3824578,61.8407663 L74.4703104,81.7041232 C74.5557734,83.2646113 73.3600292,84.5989183 71.7995411,84.6843812 C71.4070442,84.705877 71.0143738,84.6453629 70.6465594,84.506696 L51.7933703,77.399001 C50.924834,77.0715608 49.9671765,77.0692988 49.0971031,77.3926325 L29.8809459,84.533674 C28.4160026,85.0780712 26.7871103,84.3318211 26.2427132,82.8668778 C26.1073542,82.502634 26.0484645,82.1144153 26.069714,81.7264152 Z" id="-16" stroke="url(#linearGradient-2)" stroke-width="2.68867925"/>
                <g id="-33-2" transform="translate(20.533086, 21.519998)">
                    <path d="M31.0328137,0.385602593 C31.2808013,0.553850975 31.4924098,0.770265785 31.6550471,1.02196885 L40.3218507,14.4350082 C40.7274369,15.0627073 41.3502523,15.5187962 42.0711003,15.7159873 L57.9493676,20.059557 C59.1396402,20.3851613 59.8405924,21.6140223 59.5149881,22.804295 C59.4328048,23.1047229 59.2887179,23.3846499 59.091975,23.6261106 L48.6489548,36.4427286 C48.1713243,37.0289198 47.9295801,37.7722232 47.9710136,38.5272293 L48.8317386,54.2114835 C48.899357,55.443634 47.9553171,56.4973048 46.7231666,56.5649231 C46.4136744,56.5819075 46.1040338,56.534313 45.8139293,56.4251651 L30.8854538,50.8085293 C30.2007915,50.5509344 29.4461515,50.5491547 28.7602819,50.8035174 L13.5446454,56.4464126 C12.3876444,56.8754998 11.1018659,56.2854091 10.6727787,55.1284081 C10.5662349,54.841121 10.5199185,54.5349902 10.5367084,54.2290432 L11.3993792,38.5093336 C11.4402225,37.7650818 11.2059028,37.0318048 10.7410449,36.4491505 L0.487853784,23.5977709 C-0.281744532,22.6331541 -0.123650837,21.227295 0.840965935,20.4576967 C1.07417651,20.2716348 1.34228725,20.1341608 1.62948289,20.0533842 L17.0716599,15.7101152 C17.7612819,15.516152 18.3601229,15.0846192 18.762324,14.4918001 L27.9293822,0.980133195 C28.622196,-0.0410308595 30.0116497,-0.307211277 31.0328137,0.385602593 Z M26.4669136,37.7300017 L25.2169136,37.9800017 L24.9669136,39.2300017 L23.9669136,39.2300017 L23.4669136,40.4800017 L24.9669136,40.4800017 L24.9191358,40.808335 C24.4787654,43.9338906 24.661358,45.6577795 25.4669136,45.9800017 C26.3002469,46.313335 27.0502469,46.1466684 27.7169136,45.4800017 L27.7169136,45.4800017 L27.7169136,44.2300017 L27.601529,44.3764514 C27.1399905,44.9326644 26.6784521,45.1338479 26.2169136,44.9800017 C25.7169136,44.813335 25.7169136,43.313335 26.2169136,40.4800017 L26.2169136,40.4800017 L27.9669136,40.4800017 L28.2169136,39.2300017 L26.2169136,39.2300017 L26.4669136,37.7300017 Z M33.6722438,39.002729 C31.0055772,38.8360623 29.3389105,39.5860623 28.6722438,41.252729 C27.6722438,43.752729 28.4222438,46.002729 29.9222438,46.002729 C30.9222438,46.002729 31.6722438,45.1693957 32.1722438,43.502729 C32.0055772,44.8360623 32.2555772,45.5860623 32.9222438,45.752729 C33.5889105,45.9193957 34.1722438,45.5860623 34.6722438,44.752729 L34.6722438,44.752729 L34.9222438,43.252729 L34.8284938,43.4333931 C34.3597438,44.3025337 33.8909938,44.658979 33.4222438,44.502729 C32.9222438,44.3360623 33.0055772,42.502729 33.6722438,39.002729 Z M40.7169136,39.239261 C40.2169136,38.893582 39.6335803,38.893582 38.9669136,39.239261 C38.3002469,39.58494 37.7169136,40.3627178 37.2169136,41.5725943 C37.2169136,39.8441992 36.8835803,38.9800017 36.2169136,38.9800017 C35.5502469,38.9800017 35.0502469,39.4121005 34.7169136,40.276298 L34.7169136,40.276298 L34.7169136,41.313335 C35.0502469,40.621977 35.3835803,40.3627178 35.7169136,40.5355573 C36.0502469,40.7083968 36.2169136,41.1404955 36.2169136,41.8318536 L36.2169136,41.8318536 L36.2169136,45.9800017 L37.7169136,45.9800017 C37.7169136,44.0787671 37.8835803,42.7824709 38.2169136,42.0911128 C38.5502469,41.3997548 39.2169136,40.8812363 40.2169136,40.5355573 L40.2169136,40.5355573 Z M23.7481636,36.4734448 C22.6544136,35.7605542 21.5606636,35.5603589 20.4669136,35.8728589 C18.7169136,36.3728589 18.2169136,38.6228589 19.2169136,39.8728589 C20.2169136,41.1228589 22.2169136,41.8728589 22.4669136,43.1228589 C22.7169136,44.3728589 21.2169136,44.8728589 20.4669136,44.6228589 C19.9669136,44.4561922 19.3835803,43.7895255 18.7169136,42.6228589 L18.7169136,42.6228589 L17.7169136,43.6228589 L17.903437,43.8660229 C18.8311714,45.0476635 19.6856636,45.7166089 20.4669136,45.8728589 C21.7169136,46.1228589 23.9669136,45.3728589 23.7169136,42.8728589 C23.4669136,40.3728589 19.4669136,39.8728589 20.2169136,38.1228589 C20.7169136,36.9561922 21.8002469,36.9561922 23.4669136,38.1228589 L23.4669136,38.1228589 L23.9669136,36.6228589 Z M32.4222438,40.002729 C32.2555772,41.502729 31.8389105,42.6693957 31.1722438,43.502729 C30.1722438,44.752729 28.9222438,45.252729 29.4222438,42.752729 C29.7555772,41.0860623 30.7555772,40.1693957 32.4222438,40.002729 Z M41.4717916,23.9663867 L41.3449624,24.1173274 L41.3449624,25.3047973 C41.8205721,24.8298093 42.2169136,24.67148 42.5339868,24.8298093 C43.0095965,25.0673033 41.8205721,30.767159 43.4852063,31.004653 C44.5949624,31.1629823 45.6254502,30.1338417 46.5766697,27.9172312 C45.7839868,32.6671109 44.9120355,35.2795448 43.960816,35.7545327 C43.0528338,36.2079304 42.2170774,35.7957507 41.4535468,34.5179938 L41.3449624,34.3295688 L39.9181331,34.0920748 C40.0766697,35.2003801 40.7900843,36.0711914 42.058377,36.7045087 C43.960816,37.6544846 45.8632551,35.9920267 46.5766697,34.0920748 C47.0394251,32.8596736 47.7273048,29.4539161 48.6403088,23.8748024 L48.7169136,23.4048454 L47.2900843,23.4048454 C46.0217916,27.2047492 44.9913038,29.1047011 44.1986209,29.1047011 C43.647346,29.1047011 43.6072532,27.9815704 43.6280377,26.729419 L43.6313724,26.5497699 L43.6467472,25.8476407 C43.6696264,24.6844048 43.6550669,23.6084117 43.2474014,23.4048454 C42.6555315,23.1092973 42.0636616,23.2964778 41.4717916,23.9663867 Z M15.4242307,20.7924115 C13.5217916,22.2173755 14.2352063,26.4922672 13.7595965,27.9172312 C13.2839868,29.3421951 11.6193526,29.5796891 10.6681331,30.054677 C10.0339868,30.3713357 9.71691359,30.767159 9.71691359,31.242147 C13.3632551,31.717135 15.8205721,31.8754643 17.0888648,31.717135 C18.2595965,31.5709848 19.1601594,31.2224729 19.7905534,30.6715993 L19.9425233,30.529665 L20.1803282,29.1047011 L19.9401453,29.2875715 C19.2124624,29.8148081 18.4205721,30.1496746 17.5644746,30.292171 C16.6132551,30.4505004 15.3449624,30.3713357 13.7595965,30.054677 C14.710816,29.5796891 15.2656941,28.7880424 15.4242307,27.6797372 C15.6620355,26.0172793 14.9486209,22.9298574 16.1376453,21.7423875 C16.8886081,20.9924065 17.7818585,20.9529338 18.8173967,21.6239694 L18.9913038,21.7423875 L19.7047185,20.5549175 L19.4793161,20.4477491 C17.9838236,19.772785 16.6321285,19.8876725 15.4242307,20.7924115 Z M41.5827672,17.2300017 C38.7291087,17.2300017 36.9852063,18.100813 36.3510599,19.8424356 C35.7350321,21.5342975 35.268611,25.2432104 34.9517966,30.9691743 L34.9242307,31.479641 L36.3510599,31.479641 L36.5888648,27.6797372 C37.5400843,30.054677 38.4913038,31.3213116 39.4425233,31.479641 C40.3342916,31.6280747 40.9473823,31.3590386 41.2817954,30.6725325 L41.3449624,30.529665 L41.3449624,29.1047011 C40.8693526,29.8963477 40.3144746,30.2130064 39.6803282,30.054677 C39.0461819,29.8963477 38.4120355,29.0255364 37.7778892,27.4422432 C38.8876453,27.2839139 39.6803282,26.8880905 40.155938,26.2547732 C40.9778262,25.1603549 40.6315477,23.4048454 39.2047185,23.4048454 C38.0099307,23.4048454 37.1379795,24.196492 36.5888648,25.7797853 C36.7474014,22.2965401 37.1437429,20.1590942 37.7778892,19.3674476 C38.3724014,18.6252789 39.2455912,18.3005801 40.3974586,18.3933512 L40.6315477,18.4174717 L41.5827672,17.2300017 Z M20.0489484,24.4141948 L19.9425233,24.5923153 L19.9425233,25.7797853 C20.4181331,24.67148 20.8937429,24.2756567 21.3693526,24.5923153 C22.0827672,25.0673033 20.1803282,30.767159 21.6071575,31.242147 C22.558377,31.5588056 23.8266697,30.529665 25.4120355,28.1547251 C25.0949624,30.054677 25.253499,31.0838177 25.8876453,31.242147 C26.4942201,31.3935924 27.2458453,30.6034423 28.142521,28.8716966 L28.2656941,28.6297131 L28.0278892,27.9172312 C27.3937429,29.0255364 26.9181331,29.5005244 26.6010599,29.3421951 C26.2938953,29.1888135 26.5074707,27.40096 27.2417862,23.9786346 L27.3144746,23.6423394 L26.1254502,23.8798334 C25.9669136,24.9881386 25.7291087,25.9381146 25.4120355,26.7297612 C24.9364258,27.9172312 23.5095965,29.5796891 22.558377,29.3421951 C22.1331259,29.2360213 22.2306835,28.1330631 22.3623495,26.9033429 L22.3833511,26.70825 L22.4355297,26.2162947 C22.569897,24.9037694 22.6423081,23.6283691 22.0827672,23.4048454 C21.3341223,23.1057789 20.6561826,23.4422287 20.0489484,24.4141948 Z M33.7352063,23.4048454 C31.1986209,23.4048454 29.6925233,24.2756567 29.2169136,26.0172793 C28.503499,28.6297131 29.2169136,31.004653 30.8815477,31.242147 C31.9219441,31.3905807 32.7533322,31.0519662 33.3757122,30.2263036 L33.4974014,30.054677 L33.4974014,28.6297131 L33.3403327,28.8078336 C32.4585953,29.7797997 31.7182686,30.1162496 31.1193526,29.8171831 C30.1681331,29.3421951 29.6925233,26.9672552 30.6437429,25.5422913 C31.2426588,24.6450918 32.1243963,24.3127957 33.2889551,24.5454029 L33.4974014,24.5923153 L33.7352063,23.4048454 Z M38.9669136,24.5923153 C39.9181331,24.5923153 39.6803282,26.0172793 38.7291087,26.4922672 C38.0949624,26.8089259 37.460816,26.9672552 36.8266697,26.9672552 C37.6193526,25.383962 38.3327672,24.5923153 38.9669136,24.5923153 Z" fill="url(#linearGradient-3)" id=""/>
                    <g id="Luky-2" transform="translate(25.669070, 32.089687) rotate(26.000000) translate(-25.669070, -32.089687) translate(8.754972, 19.713208)"/>
                </g>
            </g>
        </g>
    </g>
</svg>