<svg width="80" height="80" viewBox="0 0 80 80" fill="none" xmlns="http://www.w3.org/2000/svg">
<g clip-path="url(#clip0_2002_6613)">
<rect width="80" height="80" rx="40" fill="url(#paint0_linear_2002_6613)"/>
<g style="mix-blend-mode:plus-lighter" opacity="0.25">
<mask id="mask0_2002_6613" style="mask-type:alpha" maskUnits="userSpaceOnUse" x="-136" y="-55" width="330" height="191">
<rect x="-135.746" y="-54.8438" width="328.867" height="190.469" fill="url(#paint1_linear_2002_6613)"/>
</mask>
<g mask="url(#mask0_2002_6613)">
<g opacity="0.3">
<g clip-path="url(#clip1_2002_6613)">
<path d="M31.9708 88.142C31.734 88.3789 31.7359 88.7622 31.9716 88.9979L44.3068 101.333C46.2966 103.323 46.3016 106.541 44.3214 108.521C42.3412 110.502 39.1229 110.497 37.1331 108.507L24.7979 96.1716C20.5825 91.9563 20.5707 85.1362 24.7679 80.939C28.965 76.7419 35.7851 76.7537 40.0005 80.9691L48.3058 89.2744C48.5415 89.5101 48.9248 89.5121 49.1617 89.2752C49.3986 89.0383 49.3966 88.655 49.1609 88.4193L36.8257 76.0841C34.8359 74.0943 34.831 70.8759 36.8111 68.8958C38.7913 66.9156 42.0096 66.9206 43.9994 68.9104L56.3346 81.2456C60.55 85.461 60.5619 92.281 56.3647 96.4782C52.1675 100.675 45.3475 100.664 41.1321 96.4481L32.8268 88.1428C32.5911 87.9071 32.2077 87.9051 31.9708 88.142Z" stroke="#00F9FB" stroke-width="0.625" stroke-miterlimit="10" stroke-linecap="round"/>
<path d="M56.1299 64.221C55.8932 64.4577 55.8937 64.8415 56.1301 65.0779C56.3665 65.3143 56.7503 65.3148 56.987 65.0781L65.2923 56.7728C69.5068 52.5584 76.3434 52.5611 80.562 56.7798C84.7807 60.9984 84.7834 67.835 80.569 72.0495L68.2339 84.3846C66.245 86.3735 63.0186 86.3723 61.0275 84.3812C59.0364 82.3901 59.0352 79.1637 61.0241 77.1748L73.3592 64.8397C73.5959 64.603 73.5955 64.2192 73.3591 63.9827C73.1226 63.7463 72.7388 63.7459 72.5021 63.9826L64.1968 72.2879C59.9824 76.5023 53.1458 76.4995 48.9271 72.2809C44.7085 68.0622 44.7057 61.2256 48.9201 57.0112L61.2553 44.676C63.2442 42.6872 66.4706 42.6883 68.4617 44.6794C70.4528 46.6706 70.4539 49.897 68.4651 51.8858L56.1299 64.221Z" stroke="#00F9FB" stroke-width="0.625" stroke-miterlimit="10" stroke-linecap="round"/>
</g>
<g clip-path="url(#clip2_2002_6613)">
<path d="M80.5243 39.5886C80.2874 39.8254 80.2894 40.2088 80.5251 40.4445L92.8602 52.7797C94.8501 54.7695 94.855 57.9878 92.8749 59.968C90.8947 61.9482 87.6764 61.9432 85.6865 59.9534L73.3514 47.6182C69.136 43.4028 69.1241 36.5828 73.3213 32.3856C77.5185 28.1884 84.3385 28.2003 88.5539 32.4156L96.8592 40.721C97.0949 40.9567 97.4783 40.9586 97.7152 40.7218C97.952 40.4849 97.9501 40.1015 97.7144 39.8658L85.3792 27.5307C83.3894 25.5408 83.3844 22.3225 85.3646 20.3423C87.3447 18.3622 90.5631 18.3671 92.5529 20.357L104.888 32.6921C109.103 36.9075 109.115 43.7275 104.918 47.9247C100.721 52.1219 93.9009 52.1101 89.6855 47.8947L81.3802 39.5893C81.1445 39.3536 80.7611 39.3517 80.5243 39.5886Z" stroke="#00F9FB" stroke-width="0.625" stroke-miterlimit="10" stroke-linecap="round"/>
</g>
<g clip-path="url(#clip3_2002_6613)">
<path d="M80.6731 88.7645C80.4364 89.0012 80.4368 89.385 80.6733 89.6214C80.9097 89.8578 81.2935 89.8583 81.5302 89.6216L89.8355 81.3163C94.0499 77.1019 100.887 77.1047 105.105 81.3233C109.324 85.542 109.327 92.3786 105.112 96.593L92.777 108.928C90.7882 110.917 87.5618 110.916 85.5706 108.925C83.5795 106.934 83.5784 103.707 85.5672 101.718L97.9024 89.3832C98.1391 89.1465 98.1386 88.7627 97.9022 88.5263C97.6658 88.2899 97.282 88.2894 97.0453 88.5261L88.74 96.8314C84.5256 101.046 77.689 101.043 73.4703 96.8244C69.2517 92.6057 69.2489 85.7691 73.4633 81.5547L85.7984 69.2196C87.7873 67.2307 91.0137 67.2319 93.0048 69.223C94.9959 71.2141 94.9971 74.4405 93.0082 76.4294L80.6731 88.7645Z" stroke="#00F9FB" stroke-width="0.625" stroke-miterlimit="10" stroke-linecap="round"/>
</g>
</g>
<g opacity="0.3">
<g clip-path="url(#clip4_2002_6613)">
<path d="M-17.3562 -9.26534C-17.5929 -9.02865 -17.5924 -8.64484 -17.356 -8.40842C-17.1196 -8.17201 -16.7358 -8.17155 -16.4991 -8.40824L-8.19377 -16.7136C-3.97937 -20.928 2.85725 -20.9252 7.0759 -16.7065C11.2945 -12.4879 11.2973 -5.65127 7.08291 -1.43687L-5.25225 10.8983C-7.24111 12.8872 -10.4675 12.886 -12.4586 10.8949C-14.4497 8.90377 -14.4509 5.67736 -12.462 3.6885L-0.126879 -8.64666C0.109805 -8.88335 0.109357 -9.26715 -0.127065 -9.50357C-0.36349 -9.74 -0.747298 -9.74044 -0.983979 -9.50376L-9.28929 -1.19845C-13.5037 3.01596 -20.3403 3.01319 -24.559 -1.20546C-28.7776 -5.42411 -28.7804 -12.2607 -24.566 -16.4751L-12.2308 -28.8103C-10.242 -30.7992 -7.01556 -30.798 -5.02444 -28.8069C-3.03333 -26.8158 -3.03217 -23.5894 -5.02103 -21.6005L-17.3562 -9.26534Z" stroke="#00F9FB" stroke-width="0.625" stroke-miterlimit="10" stroke-linecap="round"/>
</g>
<g clip-path="url(#clip5_2002_6613)">
<path d="M-16.9716 39.1996C-17.2084 39.4364 -17.2065 39.8198 -16.9708 40.0555L-4.63561 52.3907C-2.64576 54.3805 -2.64081 57.5988 -4.62098 59.579C-6.60114 61.5592 -9.81946 61.5542 -11.8093 59.5644L-24.1445 47.2292C-28.3599 43.0138 -28.3717 36.1938 -24.1745 31.9966C-19.9773 27.7994 -13.1573 27.8113 -8.94193 32.0267L-0.636612 40.332C-0.400911 40.5677 -0.0175377 40.5696 0.219325 40.3328C0.456188 40.0959 0.454233 39.7125 0.218529 39.4768L-12.1166 27.1417C-14.1065 25.1518 -14.1114 21.9335 -12.1313 19.9534C-10.1511 17.9732 -6.93277 17.9781 -4.94293 19.968L7.39223 32.3031C11.6076 36.5185 11.6195 43.3385 7.42229 47.5357C3.2251 51.7329 -3.59492 51.7211 -7.81031 47.5057L-16.1156 39.2004C-16.3513 38.9647 -16.7347 38.9627 -16.9716 39.1996Z" stroke="#00F9FB" stroke-width="0.625" stroke-miterlimit="10" stroke-linecap="round"/>
<path d="M7.18752 15.2785C6.95083 15.5152 6.95128 15.899 7.1877 16.1354C7.42412 16.3719 7.80793 16.3723 8.04462 16.1356L16.3499 7.83031C20.5643 3.6159 27.401 3.61868 31.6196 7.83732C35.8383 12.056 35.841 18.8926 31.6266 23.107L19.2915 35.4422C17.3026 37.431 14.0762 37.4299 12.0851 35.4387C10.094 33.4476 10.0928 30.2212 12.0817 28.2324L24.4168 15.8972C24.6535 15.6605 24.6531 15.2767 24.4166 15.0403C24.1802 14.8039 23.7964 14.8034 23.5597 15.0401L15.2544 23.3454C11.04 27.5598 4.20339 27.5571 -0.0152641 23.3384C-4.23391 19.1198 -4.23668 12.2831 -0.0222773 8.06873L12.3129 -4.26643C14.3017 -6.25529 17.5281 -6.25413 19.5193 -4.26302C21.5104 -2.2719 21.5115 0.954504 19.5227 2.94336L7.18752 15.2785Z" stroke="#00F9FB" stroke-width="0.625" stroke-miterlimit="10" stroke-linecap="round"/>
</g>
<g clip-path="url(#clip6_2002_6613)">
<path d="M31.5819 -9.35388C31.345 -9.11702 31.347 -8.73365 31.5827 -8.49794L43.9178 3.83722C45.9077 5.82706 45.9126 9.04538 43.9325 11.0255C41.9523 13.0057 38.734 13.0008 36.7441 11.0109L24.409 -1.32424C20.1936 -5.53963 20.1817 -12.3597 24.3789 -16.5568C28.5761 -20.754 35.3961 -20.7422 39.6115 -16.5268L47.9168 -8.22147C48.1525 -7.98577 48.5359 -7.98382 48.7728 -8.22068C49.0096 -8.45754 49.0077 -8.84091 48.772 -9.07662L36.4368 -21.4118C34.447 -23.4016 34.442 -26.6199 36.4222 -28.6001C38.4023 -30.5803 41.6207 -30.5753 43.6105 -28.5855L55.9457 -16.2503C60.1611 -12.0349 60.1729 -5.21491 55.9757 -1.01772C51.7785 3.17947 44.9585 3.16762 40.7431 -1.04777L32.4378 -9.35309C32.2021 -9.58879 31.8187 -9.59074 31.5819 -9.35388Z" stroke="#00F9FB" stroke-width="0.625" stroke-miterlimit="10" stroke-linecap="round"/>
</g>
<g clip-path="url(#clip7_2002_6613)">
<path d="M-16.8222 88.3755C-17.0589 88.6122 -17.0585 88.996 -16.8221 89.2324C-16.5856 89.4688 -16.2018 89.4693 -15.9651 89.2326L-7.65983 80.9272C-3.44543 76.7128 3.39119 76.7156 7.60984 80.9343C11.8285 85.1529 11.8313 91.9895 7.61685 96.2039L-4.71831 108.539C-6.70717 110.528 -9.93357 110.527 -11.9247 108.536C-13.9158 106.545 -13.917 103.318 -11.9281 101.329L0.407059 88.9941C0.643743 88.7575 0.643296 88.3736 0.406873 88.1372C0.170449 87.9008 -0.21336 87.9004 -0.450041 88.137L-8.75536 96.4424C-12.9698 100.657 -19.8064 100.654 -24.025 96.4353C-28.2437 92.2167 -28.2464 85.3801 -24.032 81.1657L-11.6969 68.8305C-9.70803 66.8416 -6.48162 66.8428 -4.4905 68.8339C-2.49939 70.825 -2.49823 74.0514 -4.48709 76.0403L-16.8222 88.3755Z" stroke="#00F9FB" stroke-width="0.625" stroke-miterlimit="10" stroke-linecap="round"/>
</g>
<g clip-path="url(#clip8_2002_6613)">
<path d="M7.57211 63.7429C7.33524 63.9798 7.3372 64.3632 7.5729 64.5989L19.9081 76.934C21.8979 78.9239 21.9029 82.1422 19.9227 84.1224C17.9425 86.1025 14.7242 86.0976 12.7344 84.1077L0.3992 71.7726C-3.81619 67.5572 -3.82805 60.7372 0.369142 56.54C4.56633 52.3428 11.3864 52.3546 15.6017 56.57L23.9071 64.8753C24.1428 65.111 24.5261 65.113 24.763 64.8761C24.9999 64.6393 24.9979 64.2559 24.7622 64.0202L12.427 51.685C10.4372 49.6952 10.4322 46.4769 12.4124 44.4967C14.3926 42.5165 17.6109 42.5215 19.6007 44.5113L31.9359 56.8465C36.1513 61.0619 36.1632 67.8819 31.966 72.0791C27.7688 76.2763 20.9487 76.2644 16.7334 72.049L8.42804 63.7437C8.19234 63.508 7.80897 63.5061 7.57211 63.7429Z" stroke="#00F9FB" stroke-width="0.625" stroke-miterlimit="10" stroke-linecap="round"/>
<path d="M31.7312 39.8219C31.4945 40.0586 31.495 40.4424 31.7314 40.6788C31.9678 40.9152 32.3516 40.9157 32.5883 40.679L40.8936 32.3737C45.108 28.1593 51.9446 28.1621 56.1633 32.3807C60.3819 36.5994 60.3847 43.436 56.1703 47.6504L43.8351 59.9855C41.8463 61.9744 38.6199 61.9732 36.6287 59.9821C34.6376 57.991 34.6365 54.7646 36.6253 52.7757L48.9605 40.4406C49.1972 40.2039 49.1967 39.8201 48.9603 39.5837C48.7239 39.3472 48.3401 39.3468 48.1034 39.5835L39.7981 47.8888C35.5837 52.1032 28.7471 52.1004 24.5284 47.8818C20.3098 43.6631 20.307 36.8265 24.5214 32.6121L36.8566 20.2769C38.8454 18.2881 42.0718 18.2892 44.0629 20.2804C46.054 22.2715 46.0552 25.4979 44.0663 27.4867L31.7312 39.8219Z" stroke="#00F9FB" stroke-width="0.625" stroke-miterlimit="10" stroke-linecap="round"/>
</g>
<g clip-path="url(#clip9_2002_6613)">
<path d="M56.1251 15.1896C55.8883 15.4265 55.8902 15.8099 56.1259 16.0456L68.4611 28.3807C70.4509 30.3706 70.4559 33.5889 68.4757 35.5691C66.4955 37.5492 63.2772 37.5443 61.2874 35.5544L48.9522 23.2193C44.7368 19.0039 44.725 12.1839 48.9222 7.98666C53.1193 3.78947 59.9394 3.80133 64.1548 8.01672L72.4601 16.322C72.6958 16.5577 73.0791 16.5597 73.316 16.3228C73.5529 16.086 73.5509 15.7026 73.3152 15.4669L60.98 3.13173C58.9902 1.14189 58.9852 -2.07643 60.9654 -4.0566C62.9456 -6.03676 66.1639 -6.03181 68.1537 -4.04197L80.4889 8.29319C84.7043 12.5086 84.7162 19.3286 80.519 23.5258C76.3218 27.723 69.5018 27.7111 65.2864 23.4957L56.9811 15.1904C56.7453 14.9547 56.362 14.9528 56.1251 15.1896Z" stroke="#00F9FB" stroke-width="0.625" stroke-miterlimit="10" stroke-linecap="round"/>
<path d="M80.2842 -8.73134C80.0475 -8.49465 80.048 -8.11085 80.2844 -7.87443C80.5208 -7.63801 80.9046 -7.63755 81.1413 -7.87424L89.4466 -16.1796C93.661 -20.394 100.498 -20.3912 104.716 -16.1725C108.935 -11.9539 108.938 -5.11728 104.723 -0.902871L92.3882 11.4323C90.3993 13.4211 87.1729 13.42 85.1818 11.4289C83.1907 9.43776 83.1895 6.21136 85.1784 4.2225L97.5135 -8.11266C97.7502 -8.34935 97.7498 -8.73315 97.5133 -8.96958C97.2769 -9.206 96.8931 -9.20644 96.6564 -8.96976L88.3511 -0.66445C84.1367 3.54995 77.3001 3.54719 73.0814 -0.671463C68.8628 -4.89011 68.86 -11.7267 73.0744 -15.9411L85.4096 -28.2763C87.3985 -30.2652 90.6249 -30.264 92.616 -28.2729C94.6071 -26.2818 94.6082 -23.0554 92.6194 -21.0665L80.2842 -8.73134Z" stroke="#00F9FB" stroke-width="0.625" stroke-miterlimit="10" stroke-linecap="round"/>
</g>
</g>
</g>
</g>
<path opacity="0.1" fill-rule="evenodd" clip-rule="evenodd" d="M25.8365 37.0234C25.8365 36.921 25.9196 36.8379 26.022 36.8379C26.1243 36.8379 26.2074 36.921 26.2074 37.0234V44.452C26.2074 48.3308 29.3513 51.4754 33.2294 51.4754C37.1074 51.4754 40.2513 48.3308 40.2513 44.452V33.4189C40.2513 31.5307 38.7209 30 36.8331 30C34.9452 30 33.4148 31.5307 33.4148 33.4189V44.452C33.4148 44.5544 33.3317 44.6375 33.2294 44.6375C33.127 44.6375 33.0439 44.5544 33.0439 44.452V37.0234C33.0439 33.1446 29.9 30 26.022 30C22.1439 30 19 33.1446 19 37.0234V48.0564C19 49.9447 20.5304 51.4754 22.4183 51.4754C24.3061 51.4754 25.8365 49.9447 25.8365 48.0564V37.0234ZM47.3781 37.1331C47.3781 37.0307 47.4612 36.9476 47.5636 36.9476H58.5943C60.4821 36.9476 62.0125 35.4169 62.0125 33.5286C62.0125 31.6404 60.4821 30.1097 58.5943 30.1097H47.5636C43.6855 30.1097 40.5416 33.2542 40.5416 37.1331C40.5416 41.0119 43.6855 44.1565 47.5636 44.1565H54.9906C55.093 44.1565 55.1761 44.2396 55.1761 44.342C55.1761 44.4444 55.093 44.5275 54.9906 44.5275H43.9599C42.072 44.5275 40.5416 46.0582 40.5416 47.9464C40.5416 49.8347 42.072 51.3654 43.9599 51.3654H54.9906C58.8686 51.3654 62.0125 48.2208 62.0125 44.342C62.0125 40.4631 58.8686 37.3186 54.9906 37.3186H47.5636C47.4612 37.3186 47.3781 37.2355 47.3781 37.1331Z" fill="#221C36"/>
<g filter="url(#filter0_d_2002_6613)">
<path fill-rule="evenodd" clip-rule="evenodd" d="M24.8365 36.0234C24.8365 35.921 24.9196 35.8379 25.022 35.8379C25.1243 35.8379 25.2074 35.921 25.2074 36.0234V43.452C25.2074 47.3308 28.3513 50.4754 32.2294 50.4754C36.1074 50.4754 39.2513 47.3308 39.2513 43.452V32.4189C39.2513 30.5307 37.7209 29 35.8331 29C33.9452 29 32.4148 30.5307 32.4148 32.4189V43.452C32.4148 43.5544 32.3317 43.6375 32.2294 43.6375C32.127 43.6375 32.0439 43.5544 32.0439 43.452V36.0234C32.0439 32.1446 28.9 29 25.022 29C21.1439 29 18 32.1446 18 36.0234V47.0564C18 48.9447 19.5304 50.4754 21.4183 50.4754C23.3061 50.4754 24.8365 48.9447 24.8365 47.0564V36.0234ZM46.3781 36.1331C46.3781 36.0307 46.4612 35.9476 46.5636 35.9476H57.5943C59.4821 35.9476 61.0125 34.4169 61.0125 32.5286C61.0125 30.6404 59.4821 29.1097 57.5943 29.1097H46.5636C42.6855 29.1097 39.5416 32.2542 39.5416 36.1331C39.5416 40.0119 42.6855 43.1565 46.5636 43.1565H53.9906C54.093 43.1565 54.1761 43.2396 54.1761 43.342C54.1761 43.4444 54.093 43.5275 53.9906 43.5275H42.9599C41.072 43.5275 39.5416 45.0582 39.5416 46.9464C39.5416 48.8347 41.072 50.3654 42.9599 50.3654H53.9906C57.8686 50.3654 61.0125 47.2208 61.0125 43.342C61.0125 39.4631 57.8686 36.3186 53.9906 36.3186H46.5636C46.4612 36.3186 46.3781 36.2355 46.3781 36.1331Z" fill="white"/>
</g>
</g>
<rect x="0.5" y="0.5" width="79" height="79" rx="39.5" stroke="url(#paint2_linear_2002_6613)"/>
<defs>
<filter id="filter0_d_2002_6613" x="8.00003" y="19" width="63.0125" height="41.4754" filterUnits="userSpaceOnUse" color-interpolation-filters="sRGB">
<feFlood flood-opacity="0" result="BackgroundImageFix"/>
<feColorMatrix in="SourceAlpha" type="matrix" values="0 0 0 0 0 0 0 0 0 0 0 0 0 0 0 0 0 0 127 0" result="hardAlpha"/>
<feOffset/>
<feGaussianBlur stdDeviation="5"/>
<feComposite in2="hardAlpha" operator="out"/>
<feColorMatrix type="matrix" values="0 0 0 0 0.133333 0 0 0 0 0.109804 0 0 0 0 0.211765 0 0 0 0.2 0"/>
<feBlend mode="normal" in2="BackgroundImageFix" result="effect1_dropShadow_2002_6613"/>
<feBlend mode="normal" in="SourceGraphic" in2="effect1_dropShadow_2002_6613" result="shape"/>
</filter>
<linearGradient id="paint0_linear_2002_6613" x1="98.5" y1="40" x2="24.4068" y2="-24.4269" gradientUnits="userSpaceOnUse">
<stop stop-color="#4BFFA6"/>
<stop offset="1" stop-color="#D34BFF"/>
</linearGradient>
<linearGradient id="paint1_linear_2002_6613" x1="28.6875" y1="42.1895" x2="28.6875" y2="135.625" gradientUnits="userSpaceOnUse">
<stop stop-color="white"/>
<stop offset="1" stop-color="white" stop-opacity="0"/>
</linearGradient>
<linearGradient id="paint2_linear_2002_6613" x1="11.2727" y1="-1.11414e-05" x2="95.7348" y2="29.708" gradientUnits="userSpaceOnUse">
<stop stop-color="#4BFFA6"/>
<stop offset="0.490356" stop-color="#D34BFF"/>
<stop offset="1" stop-color="#4CA2FF"/>
</linearGradient>
<clipPath id="clip0_2002_6613">
<rect width="80" height="80" rx="40" fill="white"/>
</clipPath>
<clipPath id="clip1_2002_6613">
<rect width="67.9103" height="33.9551" fill="white" transform="translate(16.7246 88.5403) rotate(-45)"/>
</clipPath>
<clipPath id="clip2_2002_6613">
<rect width="67.9103" height="33.9551" fill="white" transform="translate(65.2781 39.9869) rotate(-45)"/>
</clipPath>
<clipPath id="clip3_2002_6613">
<rect width="67.9103" height="33.9551" fill="white" transform="translate(41.2679 113.084) rotate(-45)"/>
</clipPath>
<clipPath id="clip4_2002_6613">
<rect width="67.9103" height="33.9551" fill="white" transform="translate(-56.7614 15.054) rotate(-45)"/>
</clipPath>
<clipPath id="clip5_2002_6613">
<rect width="67.9103" height="33.9551" fill="white" transform="translate(-32.2177 39.5979) rotate(-45)"/>
</clipPath>
<clipPath id="clip6_2002_6613">
<rect width="67.9103" height="33.9551" fill="white" transform="translate(16.3357 -8.95557) rotate(-45)"/>
</clipPath>
<clipPath id="clip7_2002_6613">
<rect width="67.9103" height="33.9551" fill="white" transform="translate(-56.2275 112.695) rotate(-45)"/>
</clipPath>
<clipPath id="clip8_2002_6613">
<rect width="67.9103" height="33.9551" fill="white" transform="translate(-7.67407 64.1412) rotate(-45)"/>
</clipPath>
<clipPath id="clip9_2002_6613">
<rect width="67.9103" height="33.9551" fill="white" transform="translate(40.8789 15.5879) rotate(-45)"/>
</clipPath>
</defs>
</svg>
