<?xml version="1.0" encoding="utf-8"?>
<svg xmlns="http://www.w3.org/2000/svg" fill="none" height="1000" viewBox="0 0 1000 1000" width="1000">
<rect fill="#1E1E1E" height="1000" rx="500" width="1000"/>
<g clip-path="url(#clip0_59_338)">
<path d="M641.173 470.945H744.369C759.78 470.945 761.156 472.322 757.303 487.744C749.598 517.488 744.369 547.783 725.106 573.395C707.494 597.08 685.754 610.024 655.207 609.198C611.452 609.473 564.67 609.473 520.364 608.372C457.07 605.618 425.699 644.449 407.811 689.34C403.133 700.907 400.931 713.025 396.253 724.592C381.943 760.67 361.304 776.368 319.475 777.745C278.196 779.122 234.166 777.47 191.511 777.745C175.55 777.745 173.074 775.542 176.926 760.67C182.981 737.261 188.209 713.301 196.465 690.442C209.949 652.987 229.488 640.318 269.115 640.043C299.937 639.768 330.483 639.217 361.304 639.768C396.528 640.318 423.772 625.447 442.21 596.529C452.117 580.831 458.446 562.93 465.876 545.855C469.454 537.868 471.105 529.055 474.407 521.068C490.368 483.338 509.632 470.669 550.36 470.945C580.631 470.945 610.902 470.945 641.173 470.945Z" fill="white"/>
<path d="M640.898 361.334C621.634 361.334 602.371 361.334 583.108 361.334C523.666 361.334 484.589 391.353 468.078 448.362C463.95 462.683 458.446 477.279 450.741 489.948C435.055 516.111 411.664 529.881 380.017 529.606C337.913 529.055 295.533 529.331 253.429 529.606C241.596 529.606 237.468 526.301 241.046 514.183C248.201 489.948 253.154 465.161 261.41 441.477C273.793 406.5 293.882 393.006 331.033 392.179C356.351 391.628 381.393 392.455 406.71 391.904C420.47 391.628 434.229 391.353 447.714 388.599C476.058 382.816 498.899 368.219 511.833 341.505C522.841 318.922 533.298 295.788 542.655 272.378C556.414 237.127 581.732 220.878 618.882 221.153C682.727 221.429 746.296 221.153 810.14 221.153C818.671 221.153 827.752 221.979 824.45 233.271C814.543 265.493 809.314 299.643 785.097 326.082C764.183 348.941 738.59 361.059 707.218 361.059C684.928 361.334 662.913 361.334 640.898 361.334Z" fill="white"/>
<path d="M473.307 227.212V226.937V226.661C473.307 223.907 470.83 221.429 467.803 221.429C467.252 221.429 466.427 221.429 465.876 221.429C464.776 221.429 463.675 221.429 462.299 221.429C460.923 221.429 459.822 221.429 458.446 221.429C426.249 221.429 395.978 221.429 365.707 221.704C356.075 221.704 347.82 224.458 340.665 228.865C329.932 234.648 322.502 245.113 318.374 259.434C316.173 266.319 314.246 273.48 312.32 280.916C309.568 290.555 306.816 300.47 304.064 310.109C303.514 311.486 303.514 312.863 303.514 313.964V314.24V314.515C303.514 317.269 305.991 319.748 309.018 319.748C309.568 319.748 310.394 319.748 310.944 319.748C312.045 319.748 313.146 319.748 314.522 319.748C315.898 319.748 316.998 319.748 318.374 319.748C350.847 319.748 381.118 320.023 411.389 319.748C421.02 319.748 429.276 316.994 436.431 312.587C447.163 306.804 454.594 296.339 458.721 282.018C460.923 275.132 462.849 267.972 464.776 260.536C467.528 250.897 470.279 240.982 473.031 231.343C473.307 229.691 473.307 228.314 473.307 227.212Z" fill="#1890FF"/>
</g>
<defs>
<clipPath id="clip0_59_338">
<rect fill="white" height="557.143" transform="translate(175 221.429)" width="650"/>
</clipPath>
</defs>
</svg>