<svg width="1000" height="1000" viewBox="0 0 1000 1000" fill="none" xmlns="http://www.w3.org/2000/svg">
<rect width="1000" height="1000" rx="500" fill="#020818"/>
<path d="M500.373 866.262C399.388 866.262 323.467 824.406 280.162 792.368C266.889 782.55 273.947 761.637 290.444 761.695C290.705 761.695 290.996 761.695 291.257 761.695C430.319 761.695 552.652 651.201 552.652 500.275C552.652 404.334 632.029 343.423 709.49 343.423C786.95 343.423 866.327 405.147 866.327 500.275C866.327 689.136 714.659 866.262 500.373 866.262Z" fill="#2369FF"/>
<path opacity="0.3" d="M367.429 826.584C242.685 755.71 485.289 778.57 542.796 586.717C558.944 539.226 551.074 486.681 570.881 440.787C614.36 332.327 775.844 318.791 836.72 418.682C953.128 678.185 612.472 959.182 367.429 826.584Z" fill="white"/>
<path opacity="0.3" d="M388.97 824.424C289.64 777.95 532.127 714.396 547.782 582.059C561.52 538.402 556.553 490.475 573.428 448.067C612.201 342.192 767.034 323.399 829.421 417.684C951.841 660.078 622.338 951.503 388.97 824.424Z" fill="white"/>
<path opacity="0.3" d="M428.867 827.579C316.554 783.864 534.238 706.804 556.108 570.023C566.854 529.271 564.298 484.858 581.957 446.081C671.122 278.947 881.748 386.071 846.344 557.736C821.337 744.593 612.511 899.034 428.867 827.579Z" fill="white"/>
<path opacity="0.3" d="M431.935 787.344C431.935 787.344 431.935 787.198 431.935 787.14C432.98 776.916 436.669 767.098 442.739 758.82C462.053 732.562 488.483 710.544 507.594 684.199C531.294 651.522 549.533 615.271 560.57 576.407C583.834 494.525 582.062 392.803 688.683 375.172C794.925 357.599 850.748 458.855 839.217 550.875C828.529 636.04 781.565 715.366 714.183 768.028C646.801 820.689 548.952 853.308 466.961 823.826C457.696 820.486 448.838 816.623 441.258 810.407C439.863 809.274 438.673 807.967 437.569 806.543C437.54 806.514 437.511 806.456 437.482 806.427C433.241 801.025 431.237 794.199 431.935 787.373V787.344Z" fill="white"/>
<path opacity="0.3" d="M476.657 800.289C473.811 798.43 468.67 791.662 468.089 790.181C467.16 787.828 465.301 783.645 465.301 779.84C465.301 776.035 465.301 774.757 466.347 770.255C477.761 735.602 506.631 706.701 525.625 675.766C542.965 647.504 556.819 617.179 566.577 585.46C589.783 510.084 587.867 411.587 683.537 389.831C779.208 368.075 836.628 458.701 829.57 543.256C822.861 623.424 780.108 699.846 718.797 751.2C662.858 798.052 544.969 852.544 476.716 800.231L476.657 800.289Z" fill="white"/>
<path opacity="0.3" d="M514.697 782.794C510.514 779.338 507.291 774.545 505.606 769.317C498.839 736.291 529.683 698.356 543.77 670.123C557.856 641.889 569.474 613.714 578.216 583.854C597.617 517.628 602.613 429.529 682.977 408.529C775.598 384.333 823.927 478.502 814.139 556.783C805.339 626.988 767.03 693.099 713.067 738.353C669.036 775.3 568.341 828.281 514.668 782.794H514.697Z" fill="white"/>
<path opacity="0.3" d="M554.696 754.093C527.801 719.295 580.051 631.197 591.059 594.308C606.191 543.593 612.958 477.105 660.735 445.095C724.69 402.252 790.707 457.847 796.196 525.119C800.93 583.154 775.168 642.874 738.805 686.85C702.82 730.362 622.368 791.215 562.538 760.367L560.766 759.38C558.414 758.044 556.352 756.243 554.696 754.093Z" fill="white"/>
<path opacity="0.3" d="M599.978 704.891C588.36 672.475 605.728 629.718 614.354 598.203C624.404 561.517 633.436 516.93 661.522 489.191C700.499 450.675 754.172 474.377 765.296 524.976C774.619 567.326 758.47 614.382 734.712 649.267C710.867 684.239 671.222 720.082 626.524 720.547C626.524 720.547 618.827 719.937 615.952 718.746C613.076 717.555 609.156 716.161 606.89 713.924C606.89 713.924 602.185 709.829 599.978 704.949V704.891Z" fill="white"/>
<path d="M499.627 133.738C600.612 133.738 676.533 175.594 719.838 207.632C733.111 217.45 726.053 238.363 709.556 238.305C709.295 238.305 709.004 238.305 708.743 238.305C569.681 238.305 447.348 348.799 447.348 499.725C447.348 595.666 367.971 656.577 290.51 656.577C213.05 656.577 133.673 594.853 133.673 499.725C133.673 310.864 285.341 133.738 499.627 133.738Z" fill="#2369FF"/>
<path opacity="0.3" d="M632.454 173.416C757.198 244.289 514.594 221.43 457.087 413.283C440.939 460.774 448.81 513.319 429.002 559.213C385.523 667.673 224.039 681.209 163.163 581.317C46.755 321.815 387.411 40.8179 632.454 173.416Z" fill="white"/>
<path opacity="0.3" d="M611.03 175.657C710.36 222.132 467.873 285.686 452.218 418.022C438.48 461.679 443.447 509.606 426.572 552.014C387.799 657.889 232.966 676.682 170.579 582.397C48.1592 340.003 377.662 48.5785 611.03 175.657Z" fill="white"/>
<path opacity="0.3" d="M571.133 172.421C683.446 216.136 465.762 293.196 443.892 429.977C433.146 470.729 435.702 515.141 418.043 553.919C328.878 721.053 118.252 613.929 153.656 442.264C178.663 255.407 387.489 100.966 571.133 172.421Z" fill="white"/>
<path opacity="0.3" d="M568.06 212.656C568.06 212.656 568.06 212.802 568.06 212.86C567.015 223.084 563.326 232.902 557.256 241.18C537.942 267.438 511.512 289.456 492.401 315.801C468.701 348.478 450.462 384.728 439.425 423.593C416.161 505.475 417.933 607.196 311.312 624.828C205.07 642.401 149.247 541.144 160.778 449.125C171.466 363.96 218.43 284.634 285.812 231.972C353.194 179.311 451.043 146.691 533.033 176.174C542.298 179.514 551.157 183.377 558.737 189.593C560.131 190.726 561.322 192.033 562.426 193.457C562.455 193.486 562.484 193.544 562.513 193.573C566.753 198.975 568.757 205.801 568.06 212.627V212.656Z" fill="white"/>
<path opacity="0.3" d="M523.337 199.752C526.184 201.611 531.324 208.379 531.905 209.86C532.835 212.213 534.694 216.396 534.694 220.201C534.694 224.006 534.694 225.284 533.648 229.786C522.234 264.439 493.364 293.34 474.369 324.275C457.03 352.537 443.176 382.862 433.417 414.581C410.211 489.957 412.128 588.454 316.458 610.21C220.787 631.966 163.367 541.34 170.425 456.785C177.134 376.617 219.887 300.195 281.198 248.841C337.137 201.988 455.026 147.497 523.279 199.81L523.337 199.752Z" fill="white"/>
<path opacity="0.3" d="M485.181 217.165C489.364 220.621 492.588 225.414 494.272 230.642C501.039 263.668 470.195 301.603 456.108 329.837C442.022 358.07 430.405 386.245 421.662 416.105C402.261 482.331 397.265 570.43 316.901 591.43C224.28 615.626 175.951 521.457 185.739 443.177C194.539 372.971 232.848 306.861 286.811 261.606C330.842 224.659 431.537 171.678 485.21 217.165H485.181Z" fill="white"/>
<path opacity="0.3" d="M445.304 245.907C472.199 280.705 419.949 368.803 408.941 405.692C393.809 456.407 387.042 522.895 339.265 554.905C275.31 597.748 209.293 542.153 203.804 474.881C199.07 416.846 224.832 357.126 261.195 313.15C297.18 269.638 377.632 208.785 437.462 239.633L439.234 240.62C441.586 241.956 443.648 243.757 445.304 245.907Z" fill="white"/>
<path opacity="0.3" d="M400.022 295.15C411.64 327.566 394.272 370.322 385.646 401.838C375.596 438.524 366.564 483.11 338.478 510.85C299.501 549.366 245.828 525.664 234.705 475.065C225.381 432.715 241.53 385.659 265.288 350.774C289.133 315.802 328.778 279.958 373.476 279.494C373.476 279.494 381.173 280.104 384.048 281.295C386.924 282.486 390.845 283.88 393.11 286.116C393.11 286.116 397.815 290.212 400.022 295.092V295.15Z" fill="white"/>
</svg>
