<svg width="1096" height="1097" viewBox="0 0 1096 1097" fill="none" xmlns="http://www.w3.org/2000/svg">
<rect width="1096" height="1096" rx="548" transform="matrix(1 0 0 -1 0 1096)" fill="#020818"/>
<path d="M547.589 146.575C658.269 146.575 741.478 192.449 788.94 227.563C803.487 238.324 795.752 261.245 777.671 261.181C777.385 261.181 777.066 261.181 776.78 261.181C624.368 261.181 490.291 382.282 490.291 547.697C490.291 652.848 403.294 719.606 318.397 719.606C233.501 719.606 146.504 651.957 146.504 547.697C146.504 340.705 312.731 146.575 547.589 146.575Z" fill="#2369FF"/>
<path opacity="0.3" d="M693.3 190.054C830.019 267.731 564.125 242.677 501.098 452.948C483.399 504.998 492.026 562.588 470.316 612.887C422.663 731.76 245.677 746.595 178.957 637.114C51.3736 352.699 424.733 44.7264 693.3 190.054Z" fill="white"/>
<path opacity="0.3" d="M669.688 192.448C778.554 243.384 512.788 313.04 495.63 458.08C480.574 505.928 486.017 558.456 467.523 604.935C425.027 720.974 255.33 741.572 186.954 638.235C52.7818 372.571 413.917 53.1698 669.688 192.448Z" fill="white"/>
<path opacity="0.3" d="M625.961 188.991C749.056 236.903 510.474 321.361 486.504 471.272C474.727 515.937 477.528 564.613 458.174 607.113C360.449 790.292 129.603 672.884 168.406 484.739C195.814 279.944 424.687 110.676 625.961 188.991Z" fill="white"/>
<path opacity="0.3" d="M622.603 233.061C622.603 233.061 622.603 233.221 622.603 233.284C621.457 244.49 617.414 255.251 610.761 264.324C589.593 293.102 560.626 317.233 539.68 346.108C513.705 381.922 493.715 421.653 481.619 464.248C456.121 553.991 458.063 665.477 341.207 684.801C224.765 704.062 163.584 593.084 176.221 492.231C187.935 398.89 239.408 311.949 313.258 254.232C387.109 196.515 494.351 160.764 584.213 193.077C594.368 196.738 604.077 200.972 612.385 207.784C613.913 209.026 615.218 210.459 616.428 212.018C616.459 212.05 616.491 212.114 616.523 212.146C621.171 218.067 623.367 225.548 622.603 233.03V233.061Z" fill="white"/>
<path opacity="0.3" d="M573.585 218.884C576.705 220.921 582.339 228.339 582.976 229.962C583.994 232.541 586.032 237.125 586.032 241.295C586.032 245.466 586.032 246.867 584.886 251.801C572.376 289.78 540.735 321.456 519.916 355.361C500.913 386.336 485.729 419.572 475.033 454.336C449.599 536.948 451.7 644.901 346.845 668.745C241.99 692.59 179.058 593.264 186.793 500.592C194.146 412.727 241.003 328.969 308.201 272.685C369.51 221.335 498.716 161.612 573.522 218.947L573.585 218.884Z" fill="white"/>
<path opacity="0.3" d="M531.894 238.065C536.478 241.853 540.011 247.106 541.858 252.836C549.275 289.033 515.469 330.609 500.03 361.553C484.592 392.497 471.859 423.377 462.277 456.103C441.013 528.687 435.538 625.243 347.459 648.26C245.946 674.778 192.978 571.569 203.705 485.773C213.35 408.828 255.337 336.371 314.481 286.772C362.738 246.278 473.1 188.211 531.926 238.065H531.894Z" fill="white"/>
<path opacity="0.3" d="M488.051 269.524C517.528 307.663 460.262 404.219 448.198 444.649C431.613 500.233 424.196 573.104 371.832 608.186C301.738 655.143 229.384 594.21 223.367 520.48C218.179 456.874 246.414 391.421 286.268 343.223C325.708 295.534 413.883 228.839 479.457 262.648L481.398 263.73C483.977 265.195 486.237 267.169 488.051 269.524Z" fill="white"/>
<path opacity="0.3" d="M438.422 323.448C451.154 358.976 432.119 405.837 422.665 440.378C411.651 480.586 401.751 529.453 370.969 559.855C328.251 602.069 269.425 576.091 257.233 520.634C247.015 474.219 264.714 422.646 290.752 384.412C316.887 346.083 360.337 306.798 409.327 306.289C409.327 306.289 417.763 306.957 420.914 308.262C424.065 309.568 428.363 311.096 430.846 313.547C430.846 313.547 436.002 318.036 438.422 323.384V323.448Z" fill="white"/>
<path d="M548.411 949.425C437.731 949.425 354.522 903.551 307.06 868.437C292.513 857.676 300.248 834.755 318.329 834.819C318.615 834.819 318.934 834.819 319.22 834.819C471.632 834.819 605.709 713.718 605.709 548.303C605.709 443.152 692.706 376.394 777.603 376.394C862.499 376.394 949.496 444.043 949.496 548.303C949.496 755.295 783.269 949.425 548.411 949.425Z" fill="#2369FF"/>
<path opacity="0.3" d="M402.833 905.945C266.114 828.268 532.008 853.322 595.036 643.051C612.734 591.001 604.108 533.411 625.817 483.112C673.47 364.239 850.456 349.404 917.177 458.885C1044.76 743.3 671.401 1051.27 402.833 905.945Z" fill="white"/>
<path opacity="0.3" d="M426.311 903.48C317.445 852.544 583.212 782.889 600.369 637.848C615.426 590 609.983 537.472 628.477 490.993C670.973 374.954 840.67 354.357 909.045 457.694C1043.22 723.358 682.082 1042.76 426.311 903.48Z" fill="white"/>
<path opacity="0.3" d="M470.038 907.009C346.944 859.097 585.525 774.639 609.495 624.728C621.273 580.063 618.472 531.387 637.826 488.887C735.55 305.708 966.397 423.116 927.593 611.261C900.186 816.056 671.313 985.324 470.038 907.009Z" fill="white"/>
<path opacity="0.3" d="M473.405 862.939C473.405 862.939 473.405 862.779 473.405 862.716C474.551 851.51 478.594 840.749 485.247 831.676C506.415 802.898 535.382 778.767 556.328 749.892C582.303 714.078 602.294 674.347 614.39 631.752C639.887 542.009 637.946 430.523 754.801 411.199C871.243 391.938 932.424 502.916 919.787 603.769C908.073 697.11 856.6 784.051 782.75 841.768C708.899 899.485 601.657 935.236 511.795 902.923C501.64 899.262 491.932 895.028 483.623 888.216C482.095 886.974 480.79 885.541 479.581 883.982C479.549 883.95 479.517 883.886 479.485 883.854C474.838 877.933 472.641 870.452 473.405 862.97V862.939Z" fill="white"/>
<path opacity="0.3" d="M522.423 877.081C519.304 875.044 513.67 867.626 513.033 866.003C512.014 863.424 509.977 858.84 509.977 854.669C509.977 850.499 509.977 849.098 511.123 844.164C523.633 806.185 555.274 774.509 576.092 740.604C595.096 709.629 610.28 676.393 620.976 641.629C646.41 559.017 644.309 451.064 749.164 427.22C854.019 403.375 916.951 502.701 909.216 595.373C901.862 683.237 855.005 766.996 787.808 823.28C726.499 874.63 597.293 934.353 522.487 877.018L522.423 877.081Z" fill="white"/>
<path opacity="0.3" d="M564.239 857.971C559.655 854.182 556.122 848.929 554.276 843.199C546.859 807.003 580.665 765.426 596.103 734.482C611.542 703.539 624.275 672.658 633.856 639.932C655.12 567.348 660.595 470.792 748.674 447.775C850.187 421.257 903.156 524.466 892.428 610.262C882.783 687.207 840.797 759.664 781.653 809.263C733.395 849.757 623.033 907.824 564.207 857.971H564.239Z" fill="white"/>
<path opacity="0.3" d="M607.948 826.476C578.472 788.337 635.738 691.781 647.802 651.351C664.386 595.767 671.803 522.896 724.167 487.814C794.262 440.857 866.616 501.79 872.632 575.52C877.821 639.126 849.586 704.579 809.732 752.777C770.292 800.466 682.117 867.161 616.543 833.352L614.601 832.27C612.023 830.805 609.763 828.831 607.948 826.476Z" fill="white"/>
<path opacity="0.3" d="M657.578 772.516C644.845 736.988 663.881 690.127 673.335 655.586C684.349 615.378 694.249 566.511 725.03 536.109C767.749 493.895 826.575 519.873 838.766 575.33C848.984 621.745 831.286 673.318 805.247 711.552C779.113 749.881 735.662 789.166 686.672 789.675C686.672 789.675 678.237 789.007 675.086 787.701C671.934 786.396 667.637 784.868 665.154 782.417C665.154 782.417 659.997 777.928 657.578 772.58V772.516Z" fill="white"/>
<path d="M518.217 1096.08L483.155 1041.08L434.982 1085.07L408.717 1025.37L354.386 1061.48L337.547 998.482L278.357 1025.88L271.319 961.032L208.61 979.045L211.585 913.864L146.865 922.117L159.725 858.151L94.503 856.434L116.998 795.191L52.8228 783.504L84.4076 726.408L22.7461 705.087L62.6669 653.478L4.98487 622.983L52.3202 578.077L0 539.162L53.6187 502.006L7.83336 455.55L66.4789 427.023L28.3174 374.116L90.6492 354.889L61.0332 296.788L125.585 287.279L105.185 225.324L170.407 225.785L159.683 161.443L224.068 171.873L223.314 106.651L285.352 126.758L294.568 62.1642L352.836 91.5289L371.771 29.1133L424.845 67.0234L453.12 8.21037L499.785 53.7863L536.69 0L575.857 52.1526L620.553 4.60786L651.3 62.1223L702.699 21.9921L724.314 83.5279L781.242 51.6918L793.222 115.825L854.339 93.0369L856.392 158.217L920.274 145.064L912.315 209.825L977.453 206.558L959.734 269.35L1024.62 276.053L997.518 335.368L1060.6 351.915L1024.75 406.413L1084.56 432.385L1040.83 480.767L1096 515.578L1045.4 556.713L1094.62 599.525L1038.32 632.45L1080.42 682.299L1019.76 706.259L1053.73 761.931L990.104 776.341L1015.2 836.536L950.141 841.06L965.766 904.397L900.753 898.952L906.492 963.923L843.071 948.591L838.84 1013.69L778.519 988.889L764.402 1052.56L708.563 1018.84L684.896 1079.62L634.879 1037.77L602.206 1094.24L559.143 1045.23L518.217 1096.04V1096.08ZM487.428 1008.79L520.186 1060.18L558.431 1012.68L598.687 1058.47L629.224 1005.69L675.973 1044.81L698.091 988.009L750.285 1019.55L763.481 960.027L819.864 983.234L823.802 922.41L883.076 936.736L877.714 875.996L938.454 881.107L923.876 821.917L984.7 817.686L961.242 761.428L1020.68 747.94L988.931 695.913L1045.65 673.544L1006.31 626.962L1058.93 596.173L1012.93 556.169L1060.23 517.714L1008.66 485.166L1049.55 439.925L993.622 415.629L1027.13 364.691L968.153 349.234L993.497 293.772L932.84 287.489L949.429 228.801L888.521 231.859L895.936 171.329L836.243 183.644L834.358 122.695L777.22 143.975L766.036 84.0306L712.836 113.772L692.645 56.2578L644.598 93.7909L615.862 40.0465L574.098 84.4495L537.486 35.69L503.011 85.9575L459.404 43.3558L433.013 98.315L383.416 62.8764L365.697 121.229L311.24 93.7909L302.653 154.154L244.677 135.345L245.39 196.295L185.194 186.576L195.206 246.73L134.256 246.311L153.316 304.203L92.995 313.083L120.684 367.414L62.4156 385.385L98.0637 434.815L43.2301 461.498L85.9994 504.938L35.8994 539.664L84.8265 576.066L40.5911 618.04L94.503 646.525L57.2213 694.74L114.82 714.679L85.3292 768.047L145.315 778.938L124.287 836.159L185.236 837.793L173.214 897.569L233.702 889.862L230.938 950.769L289.541 933.93L296.118 994.544L351.454 968.949L367.205 1027.85L417.975 994.125L442.522 1049.92L487.554 1008.83L487.428 1008.79Z" fill="#2369FF"/>
</svg>
