<svg width="341" height="341" viewBox="0 0 341 341" fill="none" xmlns="http://www.w3.org/2000/svg">
<circle cx="170.5" cy="170.5" r="160.5" fill="#4A87FF" stroke="#2861DC" stroke-width="20"/>
<path d="M113 240.5V213C113 210.239 115.239 208 118 208H188.5C197.419 207.595 204.366 200.944 206.675 193.911C207.536 191.287 205.261 189 202.5 189H118C115.239 189 113 186.761 113 184V156C113 153.239 115.239 151 118 151H207.5H229.5C247.1 151 248 168.5 248 174C246.5 236 208.333 245.5 188.5 246V246.5V282C188.5 284.761 186.261 287 183.5 287H156.5C153.739 287 151.5 284.761 151.5 282V245.5H118C115.239 245.5 113 243.261 113 240.5Z" fill="white"/>
<path d="M227 99.5V127C227 129.761 224.761 132 222 132H151.5C142.581 132.405 135.634 139.056 133.325 146.089C132.464 148.713 134.739 151 137.5 151H222C224.761 151 227 153.239 227 156V184C227 186.761 224.761 189 222 189H132.5H110.5C92.9 189 92 171.5 92 166C93.5 104 131.667 94.5 151.5 94V93.5V58C151.5 55.2386 153.739 53 156.5 53H183.5C186.261 53 188.5 55.2386 188.5 58V94.5H222C224.761 94.5 227 96.7386 227 99.5Z" fill="white"/>
</svg>
