<svg width="668" height="668" viewBox="0 0 668 668" fill="none" xmlns="http://www.w3.org/2000/svg">
<circle cx="334" cy="334" r="334" fill="url(#paint0_linear_3598_11167)"/>
<circle cx="334" cy="334" r="279" fill="black"/>
<path d="M430.124 312.488C430.124 312.503 430.129 312.518 430.138 312.53L486.714 390.553C503.765 414.067 486.966 447 457.92 447C446.35 447 435.504 441.373 428.841 431.914L370.359 348.885L366.41 343.216C355.286 327.439 355.189 306.559 366.169 290.687L368.915 286.719L372.864 281.05L487.54 115.749C493.928 106.542 504.289 100.892 515.488 100.51C545.179 99.4963 562.9 133.232 545.216 157.103L430.139 312.445C430.129 312.457 430.124 312.472 430.124 312.488Z" fill="#14B4FF"/>
<path d="M327.623 286.931C327.636 286.918 327.656 286.92 327.666 286.935C338.784 302.825 338.778 323.811 327.647 339.743L325.092 343.432L321.138 349.108L177.273 555.632C170.565 565.261 159.573 571 147.839 571C118.636 571 101.67 537.97 118.681 514.233L245.183 337.709C256.282 322.221 255.969 301.302 244.41 286.153L217.586 250.997C200.083 228.057 216.441 195 245.295 195C256.687 195 267.36 200.567 273.879 209.909L323.646 281.231L327.58 286.926C327.59 286.941 327.61 286.943 327.623 286.931Z" fill="#594BF7"/>
<defs>
<linearGradient id="paint0_linear_3598_11167" x1="140" y1="390" x2="370" y2="27.5" gradientUnits="userSpaceOnUse">
<stop stop-color="#594BF7"/>
<stop offset="1" stop-color="#14B4FF"/>
</linearGradient>
</defs>
</svg>
