<?xml version="1.0" encoding="utf-8"?>
<svg viewBox="0 0 8005 8005" style="enable-background:new 0 0 8005 8005;" xmlns="http://www.w3.org/2000/svg">
  <defs>
    <style type="text/css">
	.st0{fill:#021743;}
	.st1{fill:#1480C1;}
	.st2{fill:#86B0D9;}
	.st3{fill:#0F5298;}
	.st4{fill:#5B89C0;}
	.st5{fill:#FDFDF0;}
</style>
  </defs>
  <g style="" transform="matrix(1.8349339962005615, 0, 0, 1.8453869819641113, -3296.397216796875, -3556.031982421875)">
    <g>
      <path class="st0" d="M2580.66,2998.91c0.11-0.83,0.25-1.66,0.43-2.48h-0.02C2580.9,2997.25,2580.77,2998.08,2580.66,2998.91z"/>
      <path class="st0" d="M5880.02,4693.68c-18.72-108.01-58.1-209.82-100.36-310.27c-73.16-173.95-154.82-344.06-238.53-513.13 c-8.49-17.15-10.6-32.85-4.12-50.07c17.75-47.28,27.75-96.67,38.3-145.75c19.65-91.54,23.51-184.73,24.51-246.63 c0.49-96.99-1.85-162.6-10.73-227.52c-12.9-94.33-29.37-187.63-56.82-279.66c-19.33-64.79-36.46-130.45-59.79-193.91 c-43.75-119-93.41-235.74-168.25-339.12c-68.95-95.26-171.51-138.33-290.69-73.09c-92.06,50.4-176.2,112.42-258.06,177.61 c-139.58,111.12-257.7,242.8-364.83,384.64c-14.27,18.92-27.12,22.84-49.87,17.33c-88.07-21.38-177.05-37.72-267.72-44.2 c-152.9-10.92-303.74,2.2-451.74,40.95c-39.09,10.24-59.47,0.81-83.4-30.96c-146.09-194-319.76-359.44-523.97-491.88 c-24.78-16.07-50.94-30.02-76.02-45.63c-75.5-47.01-172.71-55.52-246.07,4.86c-29.54,24.3-53.69,53.06-73.86,85.31 c-48.11,76.92-86.99,158.47-120.53,242.65c-82.05,205.9-137.79,417.92-150.65,640.16c-10.26,177.25-1.22,352.24,55.87,522.2 c5.87,17.48,5.54,33.51-3.31,51.55c-69.46,141.34-138.95,282.72-202.62,426.78c-57.63,130.42-116.25,260.92-137.99,403.52 c-29.46,193.27,10.87,368.89,137.54,521.14c113.3,136.15,262.5,228.73,408.88,327.19c159.62,107.36,323.92,208.45,497.25,292.29 c293.63,142.03,618.24,234.19,943.81,214.25c313.91-19.23,612.58-140.88,892.57-284.1c194.7-99.59,384.11-210.68,560.32-340.51 c166.35-122.56,325.47-255.55,371.77-467.39C5890.4,4873,5895.6,4783.57,5880.02,4693.68z M3270.75,5893.72 c-0.72-0.56-1.13-1.51-1.66-2.3c0.77-0.07,1.6-0.36,2.3-0.16c0.52,0.16,0.86,0.95,1.28,1.46 C3272.01,5893.07,3271,5893.9,3270.75,5893.72z M5692.8,4834.97c-5.63,62.85-22.19,121.54-47.14,178.6 c-3.94,9-6.95,19.15-16.61,24.5c-10.2,24.58-30.42,41.45-47.64,60.37c-61.99,68.09-128.17,132.12-192.35,198.11 c-81.62,67.84-710.5,569.68-1445.55,569.68c-693.44,0-1249.53-444.54-1373.34-551.56c-66.36-67.06-132.97-133.87-198.5-201.73 c-23.49-24.32-51.28-46.13-63.1-80c-27.11-35.06-38.71-77.09-49.75-118.52c-21.62-81.12-22.68-163.41-4.81-245.6 c3.35-15.42,8.01-30.74,18.79-43.16c-5.65-15.91,6.03-27.57,10.76-40.59c77.14-211.61,170.28-416.01,281.78-611.71 c54.05-94.89,116.34-184.48,189.83-265.76v-0.02c-0.94-2.66-0.04-3.42,2.54-2.45c0.54-0.29,1.03-0.63,1.42-1.04 c0.22-0.2,0.4-0.41,0.56-0.67c0.16-0.23,0.31-0.49,0.43-0.76c0.02,0,0.02-0.02,0.02-0.02c-0.99-2.72-0.11-3.6,2.61-2.68 c0.94-0.49,1.51-1.26,1.71-2.27v-0.02c-0.81-3.44,0.34-4.57,3.69-3.15l1.48-1.66c14.83-35.17,42.53-60.78,66.95-88.6 c82.09-93.54,177.37-172.86,274.04-250.52c19.35-15.55,43.27-25.14,59.39-45.01c-0.04-49.62-0.07-99.22-0.09-148.85 c-41.61,17.26-78.22,43.29-116.5,66.38c-7.76,4.66-14.61,11.09-24.1,12.35c-53.28,40.44-107.16,80.09-159.66,121.52 c-68.56,54.1-128.6,117.29-188.05,180.99c-42.82,44.33-77.09,95.89-118.57,142.83c-32.85-123.52-38.32-247.73-32.06-372.24 c5.2-103.42,20.18-205.97,46.31-306.51c0.38-1.44,2.09-2.54,3.17-3.8c0.04-0.85,0.09-1.67,0.2-2.5s0.23-1.66,0.41-2.48h0.02 v-0.02c-0.86-4.28-0.09-8.01,3.53-10.85c13.16-73.77,40.08-143.32,65.05-213.51c29.84-83.87,68.63-163.69,109.21-242.67 c9.41-18.34,18.97-38.05,42.98-42.21c19.11-7.7,36.27,0.52,52.3,8.44c96.43,47.57,181.82,111.55,263.91,180.25 c15.98,13.37,31.25,27.61,46.83,41.43c11.21,2.93,18.09,11.73,25.85,19.24c111.18,107.38,211.3,224.42,303.76,348.14 c23.83,31.87,23.56,31.01,61.23,19.46c109.14-33.48,220.26-55.34,334.57-63.57c149.04-10.75,293.62,10.33,437.18,47.61 c33.03,8.58,64.42,24.4,99.48,25.03c156.93-212.11,330.36-407.91,551.49-556.26c38.48-25.83,76.37-53.17,121.7-67.4 c9.45-2.97,18.14,0.02,26.78-2.75c14.17-8.89,20.72,4.19,27.84,11.05c19.01,18.27,29.45,42.57,41.88,65.28 c69.47,126.92,120.61,261.17,159.02,400.43c1.98,7.22,2.39,14.87,3.53,22.3c3.83,2.84,4.52,6.71,3.69,11.1 c1.35,4.61,2.72,9.22,4.07,13.82c5.08,59.59,27.07,115.84,34.12,175.14c11.38,95.7,16.27,191.21,9.48,287.69 c-4.16,59.34-11.45,117.89-21.87,176.24c-1.31,7.4-3.42,14.63-5.02,21.96c-2.09,9.65-6.43,11.57-13.07,3.62 c-33.67-40.3-67.26-80.65-100.72-121.09c-1.46-1.76-1.55-4.66-2.29-7.02c-18.72-12.72-31.35-31.51-46.71-47.52 c-89.58-93.37-189.86-173.72-296.41-246.63c-5.42-3.71-10.08-8.53-15.1-12.83c-46.9-27.73-91.34-59.61-140.8-82.97 c7.33,50.38,12.73,100.86,9.61,151.89c5.78,12.82,17.66,19.62,28.19,27.38c47.59,35.03,90.53,75.52,135.36,113.79 c5,4.27,8.96,9.79,13.41,14.72c27.2,12.51,45.91,35.62,66.76,55.51c120.03,114.52,221.63,244.17,310.09,384.23 c76.71,121.45,139.45,250.21,199.98,380.25c48.11,103.42,92.42,208.37,131.62,315.38 C5691.25,4676.01,5700.05,4754.07,5692.8,4834.97z"/>
      <path class="st1" d="M5595.03,4926.31c-9.43-50.14-5.52-101.29-13.68-151.91c-12.65-78.44-28.89-155.83-50.14-232.2 c-30.26-108.69-72.03-213.1-116.97-316.55c-74.78-172.15-162.13-337.63-264.63-494.5c-56.95-87.17-114.13-175.03-186.84-250.84 c-4.14-4.32-8.01-8.66-7.61-15.19c-4.45-4.93-8.41-10.46-13.41-14.72c-44.83-38.26-87.78-78.76-135.36-113.79 c-10.53-7.76-22.41-14.56-28.19-27.38c-26.51-3.73-42.73-25.22-63.14-38.64c-50.32-33.14-101.87-63.93-155.63-90.73 c-27.88-13.88-57.68-23.88-83.28-42.33c-16.52-7.85-36.99-7.76-49.19-24.33c-35.06-0.63-66.45-16.45-99.48-25.03 c-143.55-37.28-288.13-58.35-437.18-47.61c-114.31,8.22-225.43,30.09-334.57,63.57c-37.67,11.55-37.4,12.42-61.23-19.46 c-92.46-123.72-192.58-240.76-303.76-348.14c-7.76-7.51-14.63-16.31-25.85-19.24c-0.83,0.18-1.94,0.05-2.41,0.54 c-28.02,28.73-47.03,8.12-68.3-10.91c-91.13-81.57-188.75-154.66-292.33-219.76c-24.01,4.16-33.57,23.87-42.98,42.21 c-40.59,78.98-79.37,158.8-109.21,242.67c-24.96,70.19-51.89,139.74-65.05,213.51c1.24,4.41,0.45,8.15-3.55,10.87 c-0.18,0.83-0.31,1.66-0.41,2.48s-0.16,1.66-0.2,2.5c4.25,16.72,9.54,32.7-0.79,50.09c-7.29,12.29,9.72,20.68,7.96,34.38 c16.65-12.94,16.67-12.96,38.35,6.16c0.81-4.43-1.69-11.28,5.15-11.75c5.65-0.38,3.96,5.98,4.9,9.74 c1.62,6.52-5.45,12.44-0.56,20.72c16.47-12.94,8.75-30.71,10.76-45.88c1.39-10.35,3.08-16.59,10.35-2.65 c12.27-56.06,22.95-112.56,37.26-168.1c16.99-65.93,38.21-130.65,71.17-190.76c8.23-14.99,19.11-27.36,37.69-29.55 c37.47-10.74,66.41,9.58,94.51,28.22c41.4,27.5,77.37,61.52,108.39,100.61c5.15,6.5,11.81,11.81,17.78,17.66 c8.19-5.49,4.97,2.11,5.8,5.06l-0.43-0.07c14.43,2.99,29.64,3.44,37.35,20.3c2.92,6.39,9.68,5.06,13.21-2.29 c2.88-5.99,9.14-11.92,8.87-17.64c-1.73-37.38,26.67-36.18,50.57-40.55c4.64-0.85,12.96-0.52,14.2,1.94 c15.1,30.36,54.93,27.72,72.5,58.35c16.23,28.31,45.21,49.01,66.49,74.78c51.06,61.82,103.56,122.55,149.35,188.57 c3.81,5.49,7.74,10.91,11.48,16.45c7.76,11.5,6.48,18.57-7.9,24.53c-54.91,22.71-105.6,53.92-157.75,82.04 c-28.53,15.39-54.28,35.92-81.08,54.44c-11.68,8.05-22.48,17.42-36,22.53c-16.13,19.87-40.05,29.46-59.39,45.01 c-96.67,77.66-191.95,156.98-274.04,250.52c-24.42,27.83-52.12,53.44-66.95,88.6c41.09-29.35,82.2-58.73,123.29-88.08 c8.35-12.47,21.24-18.83,34.07-25.25c4.12-3.04,9.2-11.37,13.23-5.04c5.09,8.01-6.17,5.99-9.59,9.12 c-8.93,14.15-17.06,29.01-32.81,37.17c-58.51,68.86-112.4,141.23-164.2,215.24c-106.84,152.68-194.36,316.54-279.24,481.9 c-49.28,96.02-98.77,191.88-158.02,282.3c-6.48,9.88-13.23,19.22-23.54,25.41c-10.78,12.42-15.44,27.74-18.79,43.16 c-17.87,82.2-16.81,164.49,4.81,245.6c11.03,41.43,22.64,83.46,49.75,118.52c22.61-16.09,24.68-44.73,39.9-65.44 c8.59-11.68,11.86-27.2,25.58-35.22c2.92-21.99,18.75-37.02,30-54.3c95.82-147.12,207.99-280.04,343.79-392.09 c89.27-73.67,187.54-132.56,294.33-177.19c8.32-3.49,16.76-8.24,26.57-6.14c6.3-97.75,48.79-174.57,132.94-226.18 c105.16-64.52,234.81-40.39,318.55,51.62c84.95,93.3,87.02,234.93,32.61,327.72c-16.77,28.49-76.62,45.69-104.52,58.88 c-30.73,14.53-104.97,34.9-119.85,66.32c7.1,5.36,14.14,5.09,22.94,3.77c113.3-17.02,212.19-65.34,320.2-99.13 c111.25-34.8,227.83-51.88,344.42-46.63c92.37,4.16,181.21,30.85,268.16,60.47c83.7,28.51,182.85,77.59,272.2,77.87 c-13.25-26.78-88.54-44.03-115.77-54.52c-49.3-49.48-82.61-107.34-88.12-178.04c-8.26-106.41,28.01-194.92,115.8-257.11 c75.67-53.6,160.44-66.11,245.03-25.14c91.14,44.15,143.72,119.89,155.83,221.85c0.67,5.74,1.49,11.47,2.25,17.21 c96.7,35.02,185.17,85.67,267.26,146.76c175,130.24,314.03,292.98,426.02,479.49c6.73,8.33,13.48,16.65,20.23,24.96 c0.86-0.7,1.69-1.4,2.47-2.14c0.76-0.76,1.48-1.49,2.14-2.27C5594.67,4942.29,5596.67,4935.08,5595.03,4926.31z M4134.83,3189.12 c14.76-1.42,32.83,16.95,32.96,31.62c0.13,14.09-17.98,33.17-30.79,32.49c-14.97-0.81-28.4-18.84-28.2-40.14 C4107.12,3196.33,4119.79,3190.56,4134.83,3189.12z M3562.99,3997.01c-63.79-10.24-117.24-44.06-170.75-77.18 c-15.59-9.65-30.63-20.66-44.24-32.96c-36.05-32.58-47.44-74.87-32.02-113.26c16.43-40.95,55.78-66,108.89-66.04 c57.16,3.1,106.06,34.48,149.64,75.45c35.87,33.69,65.96,71.69,76.08,121.85C3662.56,3964.34,3622.76,4006.62,3562.99,3997.01z M4013.02,3193.78c-9.11,7.29-32.43,1.28-49.53,2.39c-134.34,8.77-266.07,31.88-395.76,67.44c-3.24,0.88-6.66,0.95-9.92,1.75 c-10.65,2.54-24.14,7.34-29.16-4.99c-4.91-12.11,8.66-18.97,17.12-24.89c36.61-25.61,76.69-44.2,118.77-59.52 c130.04-47.37,312.4-53.62,426.36-34.88C4068.72,3166.89,4037.17,3174.43,4013.02,3193.78z M4154.69,3515.75 c-45.95-0.36-77.39-32.97-77.28-80.16c0.11-43.16,35.24-77.19,78.94-76.48c43.79,0.74,78.2,36.84,77.81,81.6 C4233.73,3485.33,4201.16,3516.09,4154.69,3515.75z M4605.72,3876.51c-64.11,58.55-137.22,101.76-223.04,119.08 c-63.16,12.76-107.11-35.33-89.94-98.04c20.37-74.33,74.69-121.18,137.53-159.48c31.1-18.95,64.49-31.98,102.03-30.62 c57.31,2.05,100.56,45.43,100.41,94.26C4633.13,3834.89,4625.11,3858.81,4605.72,3876.51z M2626.07,3092.12 c-0.04-0.04-0.05-0.05-0.09-0.09c-0.02,0.07-0.02,0.13-0.04,0.2L2626.07,3092.12z"/>
      <path class="st2" d="M5584.9,4952.71c-6.75-8.32-13.5-16.63-20.23-24.96c-11.39,24.93-32.52,42.28-50.45,61.57 c-157.4,169.38-340.82,304.8-543.91,414.55c-165.3,89.34-338.15,159.52-520.19,206.01c-122.68,31.34-247.31,51.58-374,59.34 c-234.82,14.36-462.59-23.2-686.47-90.48c-190.67-57.29-369.6-141.12-539.01-244.81c-142.87-87.42-273.93-190.55-391.7-309.98 c-29.23-29.64-56.66-61.07-84.9-91.68c-13.71,8.03-16.99,23.54-25.58,35.22c-15.23,20.72-17.3,49.35-39.9,65.44 c11.82,33.87,39.61,55.69,63.1,80c65.53,67.85,132.14,134.66,198.5,201.73c123.81,107.02,679.9,551.56,1373.34,551.56 c735.05,0,1363.93-501.85,1445.55-569.68c64.18-65.98,130.36-130.02,192.35-198.11c17.22-18.92,37.44-35.78,47.64-60.37 C5614.33,5009.61,5599.61,4981.17,5584.9,4952.71z"/>
      <path class="st3" d="M5692.8,4834.97c-5.63,62.85-22.19,121.54-47.14,178.6c-3.94,9-6.95,19.15-16.61,24.5 c-14.72-28.46-29.44-56.89-44.15-85.35c0.86-0.7,1.69-1.4,2.47-2.14c0.76-0.74,1.48-1.49,2.14-2.27 c5.16-6.01,7.16-13.23,5.52-21.99c-9.43-50.14-5.52-101.29-13.68-151.91c-12.65-78.44-28.89-155.83-50.14-232.2 c-30.26-108.69-72.03-213.1-116.97-316.55c-74.78-172.15-162.13-337.63-264.63-494.5c-56.95-87.17-114.13-175.03-186.84-250.84 c-4.14-4.32-8.01-8.66-7.61-15.19c27.2,12.51,45.91,35.62,66.76,55.51c120.03,114.52,221.63,244.17,310.09,384.23 c76.71,121.45,139.45,250.21,199.98,380.25c48.11,103.42,92.42,208.37,131.62,315.38 C5691.25,4676.01,5700.05,4754.07,5692.8,4834.97z"/>
      <path class="st3" d="M3028.72,2825.25c14.43,3,29.65,3.44,37.35,20.31c2.92,6.39,9.68,5.05,13.21-2.28 c2.89-6,9.14-11.92,8.88-17.64c-1.73-37.39,26.68-36.19,50.58-40.56c4.63-0.85,12.97-0.52,14.19,1.95 c15.1,30.36,54.93,27.71,72.5,58.35c16.23,28.3,45.21,49,66.49,74.77c51.05,61.83,103.56,122.55,149.34,188.57 c3.81,5.5,7.75,10.92,11.49,16.46c7.75,11.49,6.48,18.56-7.91,24.52c-54.91,22.73-105.58,53.93-157.75,82.05 c-28.53,15.38-54.29,35.92-81.09,54.43c-11.67,8.06-22.48,17.43-35.99,22.54c-0.04-49.61-0.07-99.22-0.1-148.83 c-5.07-47.86-20.59-93.03-36.91-137.8C3107.37,2951.74,3071.49,2886.62,3028.72,2825.25z"/>
      <path class="st1" d="M5126.94,2486.78c14.16-8.89,20.7,4.2,27.83,11.06c19,18.28,29.45,42.57,41.88,65.29 c69.48,126.91,120.61,261.16,159.01,400.42c1.99,7.21,2.39,14.86,3.53,22.3c-1.76,1.76-3.92,3.26-5.2,5.31 c-9.65,15.48-18.35,41.53-28.35-0.45c-2.59-10.87-18.28-18.16-22.6-2.74c-4.61,16.49-18.69,22.02-26.04,34.2 c-1.58-4.63-3.75-9.15-4.64-13.92c-16.86-89.69-39.45-177.75-75.84-261.71c-10.88-25.11-21.09-51.18-44.48-68.39 c-25.78-17.72-51.51-8.5-75.49,2.65c-50.3,23.39-91.33,59.25-127.49,100.95c-14.13,16.3-28.66,32.26-43.01,48.37 c-11.39,0.06-12,7.64-11.26,16.16c-0.98,1.33-1.96,2.66-2.93,4c-37.51,1.9-75.75,7.02-104.98-25.59 c-1.76-1.97-6.66-3.04-9.11-2.05c-4.42,1.77-3.39,6.57-3.54,10.8c-0.2,5.57,13.48,9.65,2.31,15.62 c-6.45,3.45-12.9-1.48-18.79-4.53c-10.83-5.61-15.5-14.73-14.6-26.81c81.81-93.76,174.02-176.11,274.08-249.87 C5053.84,2540.87,5090.38,2513.8,5126.94,2486.78z"/>
      <path class="st3" d="M4743.16,2817.71c-0.91,12.08,3.77,21.2,14.6,26.81c5.89,3.05,12.34,7.98,18.79,4.53 c11.17-5.97-2.51-10.05-2.31-15.62c0.15-4.23-0.88-9.03,3.54-10.8c2.45-0.98,7.35,0.09,9.11,2.05 c29.23,32.61,67.47,27.49,104.96,25.59c-5.56,9.32-11.11,18.63-16.65,27.95c-51.66,86.88-86.98,180-106.62,279.12 c7.32,50.37,12.73,100.86,9.61,151.89c-26.5-3.73-42.72-25.23-63.13-38.66c-50.33-33.12-101.88-63.92-155.64-90.71 c-27.87-13.89-57.68-23.9-83.27-42.34c57.85-73.17,113.76-147.71,176.51-217.15C4683.13,2886.67,4712.66,2851.66,4743.16,2817.71 z"/>
      <path class="st4" d="M5267.62,3547.3c-18.72-12.72-31.36-31.5-46.72-47.51c-89.57-93.37-189.85-173.72-296.41-246.63 c-5.43-3.71-10.09-8.54-15.11-12.85c0.83-4.93,0.3-10.66,2.69-14.65c27.07-45.13,50.9-92.13,81.47-135.3 c11.72-16.55,28.8-30.47,32.6-52.2l1.1-0.78c1.28-1.14,2.57-2.29,3.85-3.43c14.97-16.04,29.52-14.75,45.23-0.32 c25.3,23.24,49.53,47.11,69.11,75.75c37.15,54.32,62.01,114.52,86.7,174.9c0.46,5.31-1.23,11.67,6.56,13.38l0.3,0.11 c-5.2,28.58,8.45,54.12,14.42,80.6c8.39,37.14,7.97,76.19,23.87,111.66C5274.08,3509.12,5270.85,3528.21,5267.62,3547.3z"/>
      <path class="st4" d="M3029.32,3238.62c-53.27,40.44-107.17,80.08-159.66,121.51c-68.55,54.11-128.6,117.29-188.05,180.99 c-13.54-12.48-12.46-29.77-15.08-45.84c9.3-25.91,6.93-53.66,12.54-80.13c8.93-42.12,18.28-84.16,27.45-126.23 c7.21-17.85,14.14-35.82,21.69-53.53c31.79-74.54,69.79-144.76,132.92-198.57c17.29-14.74,32.16-19.23,49.63-2.14 c3.55,3.48,8.1,5.94,12.18,8.87c12.21,32.97,37.41,58.26,52.85,89.28C2993.42,3168.2,3021.92,3198.09,3029.32,3238.62z"/>
      <path class="st3" d="M5267.62,3547.3c3.23-19.09,6.46-38.17,9.69-57.26c6.14-41.89,14.17-83.56,15.11-126.08 c1.52-39.19,4.11-78.38,4.33-117.58c0.42-75.29-9.64-149.78-19.74-224.21c7.35-12.18,21.43-17.7,26.04-34.19 c4.31-15.42,20.01-8.13,22.6,2.74c10,41.98,18.7,15.93,28.35,0.45c1.28-2.05,3.44-3.55,5.2-5.31c3.84,2.83,4.53,6.71,3.7,11.09 c-6.36,6.87-6.29,11.85,4.06,13.82c5.08,59.6,27.08,115.84,34.13,175.15c11.38,95.69,16.27,191.2,9.49,287.69 c-4.17,59.33-11.45,117.88-21.87,176.24c-1.32,7.38-3.42,14.62-5.02,21.96c-2.1,9.65-6.44,11.57-13.08,3.61 c-33.66-40.29-67.25-80.64-100.72-121.09C5268.43,3552.56,5268.34,3549.66,5267.62,3547.3z"/>
      <path class="st5" d="M2897.81,3620.79c-58.51,68.86-112.4,141.23-164.2,215.24c-106.84,152.68-194.36,316.54-279.24,481.9 c-49.28,96.02-98.77,191.88-158.02,282.3c-6.48,9.88-13.23,19.22-23.54,25.41c-5.65-15.91,6.03-27.57,10.76-40.59 c77.14-211.61,170.28-416.01,281.78-611.71c54.05-94.89,116.34-184.48,189.83-265.76c0.11,0,2.14-0.27,2.14-0.27l0.4-2.2 c0.54-0.29,1.03-0.63,1.42-1.04c0.22-0.2,0.4-0.41,0.56-0.67c0.16-0.23,0.31-0.49,0.43-0.76c2.36,0.56,3.24-0.36,2.63-2.7 c0.94-0.49,1.51-1.26,1.71-2.27c2.61,0.56,3.82-0.52,3.69-3.17l1.48-1.66c41.09-29.35,82.2-58.73,123.29-88.08 C2900.44,3608.31,2899.99,3614.29,2897.81,3620.79z"/>
      <path class="st3" d="M2666.54,3495.28c2.62,16.07,1.53,33.36,15.08,45.84c-42.83,44.33-77.09,95.9-118.57,142.83 c-32.85-123.51-38.32-247.73-32.06-372.24c5.2-103.41,20.18-205.97,46.32-306.52c0.37-1.44,2.07-2.53,3.15-3.79 c4.26,16.72,9.54,32.7-0.78,50.09c-7.29,12.29,9.72,20.67,7.96,34.37c16.67-12.95,16.67-12.95,38.44,6.24 c0.66,0.4,1.32,0.81,1.98,1.21c-0.7-0.36-1.4-0.72-2.1-1.08c0.92-4.44-1.76-11.49,5.19-11.96c5.64-0.38,3.95,5.98,4.89,9.73 c1.62,6.52-5.45,12.44-0.55,20.72c16.46-12.95,8.75-30.71,10.77-45.87c1.38-10.35,3.07-16.6,10.34-2.65 c-11.7,98.55-14.34,197.36-8.36,296.41c-1.52,2.74-0.96,4.88,1.82,6.39l0.22,0.81 C2649.52,3409.75,2657.61,3452.57,2666.54,3495.28z"/>
      <path class="st2" d="M5026.15,3038.17c-3.8,21.72-20.88,35.65-32.6,52.2c-30.57,43.16-54.41,90.16-81.47,135.3 c-2.39,3.99-1.86,9.72-2.69,14.65c-46.89-27.72-91.33-59.6-140.8-82.96c19.64-99.11,54.96-192.24,106.62-279.12 c5.54-9.32,11.09-18.63,16.65-27.95c0.99-1.33,1.97-2.67,2.95-4c3.75-5.39,7.51-10.77,11.26-16.15 c14.35-16.11,28.88-32.07,43.01-48.37c36.16-41.7,77.18-77.56,127.49-100.95c23.98-11.15,49.71-20.37,75.49-2.65 c-16.66-2.8-28.58,4.69-39.53,16.52c-46.77,50.54-86.97,105.96-123.06,164.45c-50.46,81.8-86.44,169.29-105.3,268.47 C4932.79,3094.78,4976.44,3061.5,5026.15,3038.17z"/>
      <path class="st2" d="M3029.32,3238.62c-7.41-40.53-35.9-70.42-53.52-105.8c-15.45-31.02-40.64-56.31-52.85-89.28 c45.02,23.91,86.32,53.92,129.54,82.92c3.13-11.07,0.87-18.16-0.76-25.56c-16.47-75.01-45.05-145.46-83.6-211.45 c-45.97-78.7-94.41-155.97-165.46-215.65c37.47-10.76,66.42,9.56,94.51,28.21c41.4,27.49,77.37,61.52,108.39,100.61 c5.15,6.5,11.81,11.8,17.78,17.66c1.94,1.69,3.87,3.37,5.8,5.06c0,0-0.44-0.08-0.44-0.08c42.77,61.37,78.64,126.49,104.28,196.84 c16.32,44.78,31.84,89.94,36.91,137.8c-41.61,17.25-78.22,43.28-116.5,66.36C3045.67,3230.93,3038.82,3237.35,3029.32,3238.62z"/>
      <path class="st5" d="M4743.16,2817.71c-30.5,33.95-60.03,68.96-90.49,102.67c-62.75,69.44-118.66,143.99-176.51,217.15 c-16.53-7.85-37-7.76-49.21-24.34c156.93-212.1,330.37-407.91,551.49-556.25c38.5-25.82,76.38-53.16,121.72-67.4 c9.43-2.96,18.13,0.01,26.78-2.76c-36.56,27.02-73.1,54.09-109.7,81.07C4917.18,2641.6,4824.97,2723.95,4743.16,2817.71z"/>
      <path class="st5" d="M3164.91,2717.3c-0.82,0.17-1.94,0.04-2.42,0.54c-28.02,28.72-47.03,8.12-68.29-10.92 c-91.13-81.57-188.75-154.67-292.33-219.76c19.1-7.7,36.26,0.53,52.29,8.44c96.44,47.58,181.83,111.57,263.91,180.25 C3134.06,2689.22,3149.31,2703.46,3164.91,2717.3z"/>
      <path class="st1" d="M5366.95,3010.77c-10.34-1.97-10.42-6.95-4.06-13.82C5364.25,3001.56,5365.6,3006.16,5366.95,3010.77z"/>
      <path class="st3" d="M2584.62,2985.56c1.24,4.41,0.44,8.16-3.54,10.88C2580.22,2992.14,2581.01,2988.39,2584.62,2985.56z"/>
      <path class="st1" d="M2768.15,3694.53c0.13,2.65-1.09,3.72-3.69,3.16C2763.65,3694.23,2764.8,3693.1,2768.15,3694.53z"/>
      <path class="st1" d="M2762.76,3699.96c0.6,2.34-0.28,3.25-2.63,2.7C2759.14,3699.93,2760.03,3699.05,2762.76,3699.96z"/>
      <path class="st1" d="M2757.71,3705.13l-0.4,2.19c0,0-2.16,0.29-2.15,0.27C2754.24,3704.91,2755.14,3704.16,2757.71,3705.13z"/>
      <path class="st5" d="M5138.65,4448.26c-82.09-61.09-170.55-111.73-267.26-146.76c2.5,79.8-21.92,149.87-78.9,206.37 c-98.13,97.32-236.64,99.91-337.7,25.25c-4.7-3.47-9.45-6.91-14.18-10.39c-10.76,24.78-26.46,20.48-46.63,10.64 c-119.22-58.13-245.84-88.5-377.96-94.46c-169.31-7.63-329.71,30.6-483.36,99.69c-19.1,8.6-31.33,8.55-35.2-14.99 c-39.02,26.22-79.14,48.96-126.71,57.45c-135.58,24.23-271.31-69.65-295.89-206.06c-4.32-23.97-7.07-48.06-6.12-72.46 c-9.81-2.11-18.25,2.65-26.57,6.14c-106.78,44.64-205.05,103.53-294.33,177.19c-135.8,112.06-247.96,244.98-343.79,392.09 c-11.25,17.28-27.09,32.31-30,54.3c28.24,30.62,55.67,62.04,84.9,91.68c117.76,119.44,248.83,222.57,391.7,309.98 c169.42,103.69,348.34,187.52,539.01,244.81c223.88,67.28,451.65,104.84,686.47,90.48c126.69-7.76,251.33-28,374-59.34 c182.04-46.49,354.89-116.67,520.19-206.01c203.09-109.75,386.51-245.17,543.91-414.55c17.93-19.29,39.06-36.64,50.45-61.57 C5452.68,4741.23,5313.65,4578.49,5138.65,4448.26z M4479.97,5223.07c-24.77,19.67-52.59,35.49-79.03,53.08 c-0.5,12.69-12.49,14.94-19.85,20.81c-83.01,66.04-176.92,89.24-280.97,68.5c-40.6-8.08-78.09-25.59-113.64-46.35 c-12.76-7.43-21.09-7.6-33.67,0.18c-83.21,51.53-173,68.16-267.53,40.69c-53.8-15.64-103.4-41.79-141.99-84.63l-0.07-0.05 c-3.04,0.65-4.72-0.63-5.15-3.65c-89.74-47.98-162.13-113.12-204.17-207.84c-19.94-44.91-33.53-91.63-31.71-141.25 c1.55-42.06,36.48-67.03,76.85-55.45c23.6,6.77,38.3,21.27,39.2,48.6c4.43,133.6,111.05,249.29,242.87,271.83 c122.78,20.99,248.86-53.22,278-163.59c4.5-17.03,6.01-24.46-17.42-27.61c-113.95-15.25-203.49-69.53-249.1-178.54 c-33.62-80.4-21.87-158.47,37.06-224.82c31.41-35.37,73.27-56.39,119.99-64.9c100.05-18.25,201.28-22.91,299.28,5.44 c152.82,44.2,203.97,206.48,110.35,335.88c-55.04,76.08-130.4,116.7-222.4,126.92c-20,2.21-19.78,8.3-15.23,24.44 c25.41,89.97,113.37,158.71,211.17,168.64c169.85,17.26,305.34-130,309.43-267.17c1.15-38.39,22.52-57.97,58.4-57.13 c34.92,0.83,57.54,22.97,56.84,59.5C4635.06,5050.26,4575.92,5146.83,4479.97,5223.07z"/>
      <path class="st0" d="M3497.44,4523.62c-39.02,26.22-79.14,48.95-126.72,57.45c-135.58,24.23-271.29-69.66-295.88-206.05 c-4.32-23.98-7.07-48.06-6.13-72.47c6.3-97.74,48.79-174.56,132.93-226.19c105.16-64.53,234.81-40.38,318.56,51.61 c84.95,93.31,87.01,234.94,32.6,327.71C3537.79,4481.31,3515.61,4500.74,3497.44,4523.62z M3504.18,4254.83 c0.45-52.54-46.5-98.86-100.23-98.91c-50.82-0.04-92.74,41.64-93.07,92.55c-0.36,55.09,42.9,98.3,99.07,98.96 C3464.52,4348.08,3503.71,4309.57,3504.18,4254.83z"/>
      <path class="st0" d="M4871.4,4301.49c2.5,79.81-21.92,149.88-78.9,206.38c-98.13,97.31-236.64,99.91-337.7,25.25 c-4.71-3.48-9.45-6.92-14.18-10.39c-49.31-49.49-82.62-107.35-88.12-178.04c-8.27-106.41,27.99-194.92,115.79-257.1 c75.68-53.6,160.44-66.11,245.03-25.14c91.15,44.14,143.73,119.89,155.83,221.83C4869.82,4290.03,4870.64,4295.76,4871.4,4301.49 z M4670.23,4155.67c-51.49,0.02-92.24,40.69-92.75,92.57c-0.53,53.94,44.94,99.31,99.23,99.02c52.56-0.29,93.98-39.92,94.89-90.8 C4772.55,4203.28,4724.64,4155.65,4670.23,4155.67z"/>
      <path class="st5" d="M2802.68,2673.8c71.04,59.67,119.48,136.94,165.46,215.65c38.55,65.99,67.13,136.44,83.6,211.45 c1.62,7.4,3.89,14.49,0.76,25.56c-43.22-28.99-84.53-59.01-129.54-82.92c-4.09-2.92-8.63-5.39-12.18-8.86 c-17.47-17.09-32.34-12.6-49.63,2.14c-63.13,53.82-101.13,124.04-132.92,198.57c-7.55,17.71-14.48,35.68-21.69,53.53 c-9.37,5.04-12.44,15.12-17.99,23.1c-12.57,18.08-19,40.5-38.29,53.82c0,0-0.22-0.81-0.22-0.81c-0.61-2.13-1.21-4.26-1.82-6.39 c-5.98-99.05-3.33-197.86,8.36-296.41c12.28-56.07,22.94-112.56,37.26-168.11c16.99-65.93,38.21-130.65,71.17-190.76 C2773.22,2688.35,2784.12,2675.99,2802.68,2673.8z"/>
      <path class="st5" d="M4632.71,3801.71c0.42,33.19-7.61,57.1-26.99,74.8c-64.11,58.55-137.23,101.75-223.04,119.08 c-63.16,12.75-107.11-35.34-89.93-98.05c20.36-74.32,74.68-121.18,137.52-159.48c31.1-18.96,64.48-31.98,102.03-30.62 C4589.61,3709.51,4632.86,3752.87,4632.71,3801.71z"/>
      <path class="st5" d="M3424.87,3707.58c57.16,3.1,106.06,34.47,149.64,75.44c35.86,33.71,65.96,71.69,76.07,121.85 c11.98,59.47-27.82,101.75-87.6,92.14c-63.78-10.25-117.23-44.06-170.74-77.17c-15.59-9.65-30.64-20.68-44.24-32.96 c-36.06-32.58-47.45-74.88-32.03-113.27C3332.41,3732.66,3371.76,3707.61,3424.87,3707.58z"/>
      <path class="st2" d="M2897.82,3620.78c2.17-6.5,2.62-12.47-4.9-16c8.35-12.48,21.23-18.82,34.06-25.24 c1.22,1.36,2.43,2.72,3.65,4.09C2921.69,3597.78,2913.55,3612.63,2897.82,3620.78z"/>
      <path class="st2" d="M2926.98,3579.54c4.13-3.04,9.2-11.39,13.24-5.05c5.09,8-6.18,5.99-9.61,9.12 C2929.41,3582.26,2928.2,3580.9,2926.98,3579.54z"/>
      <path class="st3" d="M3029.17,2825.34c-1.93-1.69-3.86-3.37-5.8-5.06C3031.55,2814.79,3028.33,2822.38,3029.17,2825.34z"/>
      <path class="st3" d="M3272.68,5892.71c-0.67,0.36-1.67,1.19-1.93,1.01c-0.72-0.56-1.13-1.51-1.66-2.3 c0.77-0.07,1.6-0.36,2.3-0.16C3271.92,5891.41,3272.26,5892.21,3272.68,5892.71z"/>
      <path class="st5" d="M5026.15,3038.17c-49.71,23.34-93.36,56.62-141.98,89.42c18.86-99.18,54.84-186.67,105.3-268.47 c36.08-58.49,76.28-113.91,123.06-164.45c10.95-11.83,22.87-19.32,39.53-16.52c23.4,17.2,33.6,43.27,44.48,68.38 c36.39,83.96,58.98,172.03,75.84,261.71c0.9,4.76,3.07,9.29,4.64,13.92c10.1,74.43,20.16,148.91,19.73,224.21 c-0.22,39.2-2.81,78.39-4.33,117.59c-12.31-1.1-14.14-12.82-20.3-20.12c-12.23-14.49-15.97-35.09-33.1-46.06 c0,0-0.3-0.11-0.32-0.1c-0.5-5.28-0.96-10.59-6.55-13.39c-24.69-60.38-49.56-120.58-86.7-174.9 c-19.58-28.64-43.81-52.51-69.11-75.75c-15.71-14.44-30.26-15.73-45.23,0.31c-2.72-0.46-4.07,0.61-3.85,3.44L5026.15,3038.17z"/>
      <path class="st3" d="M4906.07,2830.12c-3.75,5.38-7.51,10.77-11.26,16.15C4894.06,2837.76,4894.67,2830.18,4906.07,2830.12z"/>
      <path class="st2" d="M5239.01,3297.78c17.14,10.97,20.88,31.57,33.1,46.06c6.16,7.3,7.99,19.02,20.3,20.12 c-0.94,42.52-8.97,84.19-15.11,126.08c-15.9-35.47-15.49-74.52-23.87-111.66C5247.46,3351.9,5233.81,3326.36,5239.01,3297.78z"/>
      <path class="st2" d="M5232.15,3284.29c5.59,2.8,6.05,8.11,6.55,13.39C5230.92,3295.96,5232.61,3289.59,5232.15,3284.29z"/>
      <path class="st2" d="M5027.25,3037.39c-0.22-2.83,1.13-3.9,3.85-3.44C5029.82,3035.1,5028.53,3036.24,5027.25,3037.39z"/>
      <path class="st2" d="M2650.26,3365.83c19.29-13.32,25.72-35.74,38.29-53.82c5.55-7.98,8.61-18.06,17.99-23.1 c-9.17,42.08-18.52,84.11-27.45,126.24c-5.61,26.47-3.24,54.22-12.54,80.13C2657.61,3452.57,2649.52,3409.75,2650.26,3365.83z"/>
      <path class="st2" d="M2648.22,3358.62c0.61,2.13,1.22,4.26,1.82,6.39C2647.26,3363.5,2646.7,3361.36,2648.22,3358.62z"/>
      <path class="st1" d="M2625.95,3092.24c0.7,0.36,1.4,0.72,2.1,1.08c-0.66-0.4-1.32-0.8-1.98-1.21 C2626.07,3092.12,2625.95,3092.24,2625.95,3092.24z"/>
      <path class="st0" d="M4580.63,4865.1c-35.89-0.85-57.25,18.74-58.4,57.13c-4.09,137.17-139.58,284.43-309.43,267.17 c-97.8-9.94-185.76-78.67-211.17-168.64c-4.55-16.15-4.77-22.23,15.23-24.44c92.01-10.22,167.37-50.85,222.4-126.92 c93.63-129.41,42.48-291.68-110.35-335.88c-98-28.35-199.22-23.69-299.28-5.44c-46.72,8.51-88.59,29.54-119.99,64.9 c-58.93,66.34-70.68,144.42-37.06,224.82c45.61,109.02,135.15,163.3,249.1,178.54c23.43,3.15,21.92,10.58,17.42,27.61 c-29.14,110.37-155.22,184.57-278,163.59c-131.82-22.53-238.44-138.23-242.87-271.83c-0.9-27.32-15.6-41.83-39.2-48.6 c-40.37-11.57-75.3,13.39-76.85,55.45c-1.82,49.62,11.77,96.34,31.71,141.25c42.04,94.72,114.43,159.86,204.17,207.84 c2.99-0.58,4.77,0.54,5.15,3.65l0.07,0.05c78.81,27.59,158.71,39.47,241.74,20.57c64.43-14.65,121.29-42.98,170.08-87.38 c7.2-6.55,11.52-12.35,22.34-3.26c124.73,104.97,264.02,125.95,416.16,70.72c2.16-0.77,4.9,0.05,7.34,0.14 c26.44-17.58,54.26-33.41,79.03-53.08c95.95-76.24,155.09-172.8,157.5-298.47C4638.17,4888.06,4615.55,4865.93,4580.63,4865.1z M3948.89,4718.84c-21.76-12.38-43.12-25.48-65.17-37.27c-49.05-26.22-99.68-32.43-152.03-9.94c-6.17,2.66-13.77,6.71-18.56,0.56 c-4.72-6.01,1.13-13.07,4.72-18.14c22.41-31.66,46.31-61.77,87.53-70.05c31.79-20.19,68.59-20.57,103.83-23 c64.4-4.46,129.1-4.62,192.91,8.71c13.08,2.75,26.08,6.21,37.2,14.27c39.56,12.56,67.37,38.53,85.28,75.45 c1.94,4.03,5.6,9.43,0.7,13.8c-4.28,3.82-9.72,2.2-14.22,0.04c-82.52-39.38-150.95-5.56-215.89,42.55 C3979.07,4727.75,3964.93,4727.97,3948.89,4718.84z"/>
      <path class="st2" d="M3543.28,5275.35c78.81,27.6,158.71,39.48,241.74,20.58c64.43-14.66,121.3-42.98,170.09-87.39 c7.2-6.55,11.51-12.35,22.33-3.25c124.72,104.96,264.03,125.94,416.17,70.72c2.15-0.78,4.88,0.05,7.34,0.13 c-0.5,12.69-12.49,14.94-19.86,20.8c-83.02,66.05-176.92,89.24-280.97,68.51c-40.62-8.09-78.1-25.6-113.64-46.34 c-12.77-7.45-21.1-7.61-33.68,0.18c-83.21,51.53-172.99,68.15-267.53,40.68C3631.47,5344.34,3581.88,5318.19,3543.28,5275.35z"/>
      <path class="st2" d="M3538.06,5271.65c2.99-0.57,4.78,0.54,5.14,3.65C3540.17,5275.94,3538.49,5274.67,3538.06,5271.65z"/>
      <path class="st5" d="M3504.18,4254.83c-0.47,54.74-39.66,93.25-94.24,92.6c-56.17-0.66-99.43-43.87-99.07-98.96 c0.33-50.91,42.25-92.59,93.07-92.55C3457.67,4155.97,3504.62,4202.3,3504.18,4254.83z"/>
      <path class="st5" d="M4670.23,4155.67c54.42-0.02,102.32,47.62,101.37,100.79c-0.91,50.88-42.33,90.52-94.89,90.8 c-54.29,0.29-99.76-45.08-99.23-99.02C4577.99,4196.36,4618.74,4155.69,4670.23,4155.67z"/>
      <path class="st3" d="M4139.31,4583.98c39.55,12.57,67.36,38.53,85.27,75.45c1.96,4.03,5.61,9.42,0.71,13.79 c-4.28,3.83-9.72,2.2-14.23,0.04c-82.52-39.38-150.95-5.56-215.89,42.56c-16.1,11.93-30.26,12.14-46.29,3.01 c-21.75-12.38-43.11-25.48-65.17-37.27c-49.04-26.22-99.66-32.43-152.03-9.92c-6.17,2.65-13.76,6.7-18.56,0.56 c-4.71-6.02,1.15-13.08,4.73-18.14c22.4-31.66,46.3-61.77,87.52-70.05c12.12-1.06,23.09,3.29,34.16,7.21 c32.51,11.5,63.17,27.08,93.47,43.29c28.94,15.49,57.46,16.18,86.2-0.04C4057.27,4612.97,4097.03,4595.47,4139.31,4583.98z"/>
      <path class="st5" d="M4139.31,4583.98c-42.28,11.49-82.04,28.99-120.11,50.49c-28.73,16.23-57.25,15.53-86.2,0.04 c-30.3-16.22-60.96-31.79-93.47-43.29c-11.07-3.92-22.04-8.28-34.16-7.21c31.78-20.19,68.59-20.58,103.83-23.02 c64.41-4.45,129.11-4.62,192.91,8.73C4115.2,4572.46,4128.18,4575.91,4139.31,4583.98z"/>
      <path class="st0" d="M3272.68,5892.71c-0.67,0.36-1.67,1.19-1.93,1.01c-0.72-0.56-1.13-1.51-1.66-2.3 c0.77-0.07,1.6-0.36,2.3-0.16C3271.92,5891.41,3272.26,5892.21,3272.68,5892.71z"/>
      <path class="st0" d="M5599.35,5358.67c0,0-1.76,1.37-5.22,3.98c1.58-1.37,3.17-2.74,4.73-4.14L5599.35,5358.67z"/>
      <path class="st1" d="M2256.07,4654.1c0.22-2.36,0.75-4.67,1.57-6.89c15.07-40.68,165.41-442.3,323.37-705.8 c137.44-229.28,324.9-408.48,386.22-464.11c11.1-10.07,28.26-9.21,38.3,1.91l67.95,75.26c7.73,8.56,9.19,21.07,3.65,31.18 l-311.78,568.54c-0.91,1.66-1.99,3.22-3.23,4.66l-460.31,534.34c-17.22,19.99-49.94,6.07-47.49-20.19L2256.07,4654.1z"/>
      <path class="st5" d="M2845.57,2515.08c0,0,523.3,432.43,611.54,624.21c0,0,57.85-26.83,64.83-28.15 c6.97-1.33-309.77-374.1-425.76-450.7C2980.18,2583.83,2845.57,2515.08,2845.57,2515.08z"/>
      <polygon class="st1" points="3502.36,3204.63 3893.04,3085.78 4148.44,3132.56 4255.91,3238.77 4296.37,3581.41 3968.9,3613.01 &#10;&#9;&#9;&#9;&#9;3494.77,3298.19 &#9;&#9;&#9;"/>
      <path class="st1" d="M3518.22,4539.28c0,0-65.45,31.24-147.5,41.79c0,0,113.58-32.29,139.67-72.82"/>
      <path class="st1" d="M4338.39,4507.96c0,0,44.46,22.78,93.25,40.66c61.49,22.53,133.05,40.87,166.88,36.22 c0,0-155.5-37.48-211.11-115.89C4331.82,4390.54,4338.39,4507.96,4338.39,4507.96z"/>
    </g>
  </g>
</svg>