<svg width="2407" height="2407" viewBox="0 0 2407 2407" fill="none" xmlns="http://www.w3.org/2000/svg">
<circle cx="1203.5" cy="1203.5" r="1203.5" fill="#9BCBCB"/>
<path fill-rule="evenodd" clip-rule="evenodd" d="M1523.74 1089.63L1523.72 1089.69C1579.35 1159.92 1612.6 1248.88 1612.6 1345.63C1612.6 1443.83 1578.36 1533.99 1521.22 1604.7L1516.3 1610.79L1515 1603.05C1513.89 1596.47 1512.58 1589.83 1511.07 1583.13C1482.47 1456.64 1389.3 1348.18 1235.96 1260.35C1132.41 1201.21 1073.14 1129.99 1057.57 1049.08C1047.52 996.757 1055 944.202 1069.44 899.187C1083.87 854.186 1105.35 816.484 1123.59 793.785L1123.6 793.771L1183.25 720.338C1193.71 707.459 1213.29 707.459 1223.75 720.338L1523.74 1089.63ZM1618.09 1016.26L1618.1 1016.23L1218.28 524.048C1210.65 514.651 1196.35 514.651 1188.72 524.048L788.895 1016.24L788.906 1016.26L787.605 1017.89C714.03 1109.81 670 1226.62 670 1353.77C670 1649.92 908.851 1890 1203.5 1890C1498.15 1890 1737 1649.92 1737 1353.77C1737 1226.62 1692.97 1109.81 1619.39 1017.89L1618.09 1016.26ZM884.562 1088.04L884.577 1088.02L920.339 1044L921.42 1052.12C922.276 1058.56 923.314 1065.03 924.545 1071.53C947.685 1193.76 1030.35 1295.68 1168.54 1374.61C1288.67 1443.44 1358.61 1522.59 1378.77 1609.4C1387.17 1645.63 1388.67 1681.27 1385.03 1712.44L1384.81 1714.36L1383.08 1715.22C1328.86 1741.88 1267.91 1756.85 1203.49 1756.85C977.545 1756.85 794.372 1572.75 794.372 1345.63C794.372 1248.13 828.139 1158.53 884.562 1088.04Z" fill="white"/>
</svg>
