<svg width="1024" height="1024" viewBox="0 0 1024 1024" fill="none" xmlns="http://www.w3.org/2000/svg">
<circle cx="512" cy="512" r="512" fill="black"/>
<path d="M543.052 177.093C566.106 192.567 587.256 215.778 600.5 231.456C624.961 260.245 652.195 291.845 665.73 327.313C675.456 352.886 676.574 382.979 661.963 406.231C649.34 426.347 627.114 438.441 605.881 449.68C572.356 467.435 538.83 485.189 505.222 502.944C503.898 503.636 502.491 504.45 501.994 505.794C501.415 507.219 502.077 508.767 502.615 510.192C506.754 520.372 511.307 529.25 513.707 538.615C516.687 550.18 515.57 540.896 517.018 560.483C517.639 568.871 515.859 578.481 511.679 586.381C510.148 589.232 508.575 593.711 505.512 594.688C499.594 596.562 475.546 567.69 466.73 562.152C447.029 549.814 435.316 543.583 426.542 545.782C425.465 546.027 405.392 557.184 396.824 568.26C391.443 575.264 386.021 583.124 381.717 589.72C365.699 614.153 371.701 638.952 373.77 647.422C380.186 673.932 407.544 674.258 430.887 673.484C475.67 671.977 522.523 674.624 561.595 696.247C568.713 700.197 576.453 707.364 573.597 714.857C571.983 719.01 567.637 721.413 563.54 723.286C545.121 731.837 525.545 738.027 505.512 741.57C489.95 744.339 473.684 745.683 459.818 753.135C444.628 761.279 433.991 776.02 427.204 791.698C421.74 804.362 413.256 869.19 389.374 857.625C385.194 855.63 382.255 851.802 379.854 847.893C369.797 831.441 367.727 811.977 360.029 794.589C351.379 775.002 335.527 765.188 318.433 753.175C283.376 728.58 253.121 691.442 242.318 649.988C227.79 594.363 231.267 524.485 260.902 473.747C254.983 467.72 252.003 467.231 218.436 469.756C213.552 470.122 186.318 476.841 183.835 472.606C181.848 469.186 183.711 461.937 186.236 456.033C187.064 454.16 188.057 452.001 188.719 450.454C192.651 440.518 200.391 433.677 208.71 426.999C231.805 408.43 256.887 392.915 285.115 382.816C293.517 379.844 297.159 374.631 300.718 366.161C332.215 291.356 403.405 165.039 497.483 161.049C512.383 160.356 528.152 167.116 543.052 177.093Z" fill="white"/>
<path d="M841 599.421C778.749 640.105 742.661 678.967 744.337 703C744.272 702.936 744.272 702.872 744.272 702.808C741.05 647.615 709.28 604.311 670.55 604.311C661.206 604.311 652.249 606.836 644 611.438C704.447 571.841 740.019 534.065 740.148 510C743.95 564.426 775.527 606.899 813.87 606.899C823.472 606.899 832.623 604.247 841 599.421Z" fill="white"/>
</svg>
